<svg id="svg" version="1.1" xmlns="http://www.w3.org/2000/svg" xmlns:xlink="http://www.w3.org/1999/xlink" width="400" height="225" viewBox="0, 0, 400,225"><g id="svgg"><path id="path0" d="M86.665 66.742 C 82.498 67.959,83.080 67.167,79.903 75.941 C 79.674 76.571,79.391 76.806,76.632 78.649 L 73.611 80.667 70.847 80.677 C 69.327 80.683,67.184 80.749,66.084 80.823 L 64.085 80.957 63.030 82.104 C 61.833 83.405,60.267 85.430,59.993 86.031 C 59.782 86.495,60.026 87.592,61.275 91.806 C 62.182 94.865,62.208 94.583,60.666 98.362 L 59.464 101.307 57.857 102.444 C 54.337 104.933,51.649 107.025,51.516 107.378 C 51.268 108.034,51.000 110.505,51.000 112.126 L 51.000 113.700 51.958 114.673 C 52.485 115.209,54.073 116.468,55.486 117.471 L 58.055 119.295 58.705 121.856 C 59.062 123.264,59.416 124.657,59.491 124.951 C 59.594 125.350,59.532 125.749,59.247 126.534 C 56.017 135.432,56.170 134.533,57.508 136.748 C 60.147 141.120,60.117 141.104,65.331 140.883 C 69.885 140.689,69.580 140.635,71.074 141.902 C 71.629 142.373,72.572 143.106,73.169 143.532 L 74.255 144.307 75.229 147.695 C 77.046 154.014,77.128 154.105,82.319 155.530 C 83.876 155.957,83.785 155.996,87.442 153.290 C 88.958 152.168,90.446 151.076,90.750 150.863 C 91.287 150.486,91.398 150.476,94.776 150.491 L 98.250 150.507 99.083 151.093 C 99.542 151.416,100.967 152.429,102.250 153.345 C 106.057 156.063,105.752 155.998,109.333 154.844 C 112.668 153.770,112.523 153.962,114.088 148.557 C 114.821 146.027,114.821 146.024,114.575 145.078 C 114.169 143.520,112.631 140.499,111.878 139.779 L 111.211 139.142 109.397 140.047 C 101.550 143.963,89.499 144.354,82.442 140.922 C 71.934 135.811,66.780 128.764,65.071 117.167 C 64.006 109.939,66.336 101.070,71.255 93.636 C 74.887 88.147,84.723 81.192,90.872 79.766 C 99.093 77.860,107.429 78.536,113.564 81.608 C 116.523 83.090,116.521 83.090,117.536 81.583 C 120.010 77.913,120.106 77.412,119.151 73.138 C 118.089 68.379,117.968 68.225,114.333 67.007 C 111.268 65.980,111.646 65.847,106.191 69.862 L 103.966 71.500 100.555 71.500 C 96.655 71.500,97.152 71.653,94.434 69.621 C 89.437 65.884,89.510 65.912,86.665 66.742 M332.456 77.123 C 330.732 79.267,330.388 79.782,330.551 79.981 C 330.661 80.114,331.650 80.935,332.750 81.805 C 337.108 85.250,339.216 87.731,340.841 91.325 C 345.587 101.824,345.390 110.615,340.168 121.250 C 337.352 126.984,334.013 130.601,327.445 135.033 C 326.587 135.612,326.007 136.112,326.054 136.233 C 326.171 136.539,329.508 141.709,329.770 141.991 C 330.012 142.252,330.736 141.808,334.069 139.353 L 335.556 138.258 339.878 138.131 C 345.771 137.957,345.378 138.135,348.230 134.351 C 349.757 132.325,349.766 132.500,347.819 126.361 C 347.023 123.852,347.018 124.182,347.890 122.123 C 348.288 121.185,348.825 119.817,349.084 119.083 C 349.663 117.445,349.657 117.452,351.729 115.975 C 357.686 111.730,357.707 111.705,357.991 108.763 C 358.285 105.721,358.249 105.318,357.620 104.523 C 357.097 103.861,353.918 101.406,351.863 100.075 L 350.888 99.444 350.509 97.763 C 350.300 96.839,349.935 95.455,349.697 94.687 L 349.264 93.291 349.647 92.270 C 350.870 89.012,352.333 84.573,352.333 84.124 C 352.333 83.256,350.458 80.320,348.814 78.614 L 348.010 77.780 344.213 77.921 C 342.125 77.999,340.108 78.065,339.732 78.069 C 339.119 78.075,338.873 77.935,337.398 76.737 C 336.492 76.000,335.482 75.197,335.155 74.952 L 334.560 74.506 332.456 77.123 M264.833 87.101 C 259.230 88.606,255.804 93.981,255.550 101.667 C 255.339 108.064,257.326 110.477,264.937 113.062 C 269.087 114.471,269.833 115.186,269.833 117.753 C 269.833 121.928,267.728 124.442,264.068 124.635 C 260.536 124.821,258.615 123.017,258.379 119.292 L 258.287 117.833 255.495 117.833 C 252.206 117.833,252.500 117.583,252.501 120.389 C 252.506 128.094,255.980 131.838,263.167 131.886 C 270.787 131.936,275.814 125.561,275.825 115.833 C 275.832 110.039,273.991 107.966,266.252 105.051 C 262.074 103.478,261.164 102.622,261.169 100.271 C 261.175 96.734,263.019 94.671,266.425 94.388 C 269.784 94.109,271.500 95.932,271.500 99.781 L 271.500 100.667 274.321 100.667 L 277.143 100.667 277.261 99.719 C 278.309 91.331,272.197 85.125,264.833 87.101 M215.914 87.576 C 209.431 88.754,204.359 95.478,202.009 106.011 C 198.137 123.368,202.571 133.625,213.458 132.496 C 221.905 131.620,227.030 123.672,228.738 108.800 C 230.407 94.266,225.331 85.865,215.914 87.576 M320.417 87.509 C 316.658 87.570,313.157 87.631,312.636 87.644 C 311.464 87.672,311.703 86.696,310.589 96.000 C 308.861 110.429,306.903 126.486,306.671 128.132 C 306.369 130.275,306.053 130.067,309.436 129.951 C 311.051 129.895,312.398 129.824,312.430 129.792 C 312.462 129.760,312.947 125.800,313.507 120.993 C 314.068 116.185,314.564 112.214,314.610 112.168 C 314.656 112.121,317.425 112.061,320.762 112.034 L 326.831 111.984 326.913 111.617 C 327.012 111.173,327.833 104.832,327.833 104.511 C 327.833 104.320,326.828 104.303,321.693 104.403 L 315.552 104.522 316.109 100.136 C 316.415 97.724,316.705 95.581,316.753 95.375 L 316.840 95.000 322.128 94.980 C 325.037 94.968,328.202 94.912,329.161 94.855 L 330.906 94.750 331.188 92.417 C 331.343 91.133,331.523 89.465,331.588 88.708 L 331.706 87.333 329.478 87.365 C 328.253 87.383,324.175 87.448,320.417 87.509 M294.203 87.792 L 287.824 87.837 287.687 88.210 C 287.509 88.697,286.772 95.161,286.882 95.271 C 286.929 95.318,288.812 95.348,291.067 95.339 C 293.322 95.330,295.167 95.363,295.167 95.412 C 295.167 95.461,294.940 97.358,294.664 99.626 C 294.387 101.894,293.937 105.587,293.665 107.833 C 293.392 110.079,292.681 115.854,292.084 120.667 C 291.488 125.479,291.000 129.587,291.000 129.796 L 291.000 130.174 293.955 130.129 L 296.910 130.083 297.694 123.750 C 298.124 120.267,299.088 112.468,299.836 106.419 C 300.584 100.371,301.231 95.364,301.274 95.294 C 301.318 95.224,303.226 95.167,305.515 95.167 C 308.702 95.167,309.691 95.118,309.737 94.958 C 309.804 94.726,310.285 90.535,310.445 88.792 L 310.548 87.667 305.566 87.706 C 302.825 87.728,297.712 87.766,294.203 87.792 M232.927 88.650 C 232.814 88.832,232.435 91.744,229.582 114.330 C 228.431 123.450,227.573 130.806,227.652 130.886 C 227.731 130.964,229.065 130.975,230.617 130.909 L 233.440 130.790 233.801 127.687 C 233.999 125.980,234.424 122.371,234.745 119.667 C 235.066 116.962,235.330 114.656,235.331 114.542 C 235.334 114.281,242.589 114.244,243.509 114.500 C 245.231 114.978,245.583 116.425,245.087 120.984 C 244.951 122.230,244.686 124.712,244.497 126.500 C 244.308 128.287,244.113 129.956,244.064 130.208 L 243.974 130.667 246.909 130.667 C 249.109 130.667,249.861 130.615,249.912 130.458 C 250.052 130.028,251.500 116.491,251.500 115.606 C 251.500 113.585,250.954 112.115,249.823 111.094 L 249.122 110.460 249.686 110.033 C 255.951 105.290,256.185 92.071,250.058 89.062 L 249.083 88.583 241.054 88.537 C 236.091 88.508,232.988 88.551,232.927 88.650 M93.745 89.003 C 86.621 89.965,80.959 98.125,78.597 110.833 C 75.972 124.958,79.645 134.033,88.000 134.063 C 93.715 134.084,98.305 129.686,101.460 121.167 C 102.835 117.454,103.038 117.763,99.330 117.922 L 96.513 118.042 96.238 118.896 C 93.520 127.330,85.797 129.095,84.264 121.632 C 83.331 117.092,84.715 107.793,87.102 102.554 C 90.712 94.633,97.773 94.610,98.701 102.516 L 98.895 104.167 101.847 104.167 L 104.800 104.167 104.918 102.985 C 105.769 94.509,100.627 88.073,93.745 89.003 M186.544 89.125 L 180.505 89.171 180.425 89.544 C 180.221 90.489,179.479 96.186,179.528 96.433 C 179.578 96.685,179.975 96.708,183.729 96.679 L 187.874 96.646 187.775 97.198 C 187.721 97.502,187.339 100.112,186.926 103.000 C 186.514 105.888,185.915 110.013,185.596 112.167 C 185.277 114.321,184.828 117.358,184.598 118.917 C 184.367 120.475,183.876 123.799,183.506 126.304 C 183.136 128.809,182.833 131.004,182.833 131.183 C 182.833 131.494,182.956 131.506,185.869 131.462 L 188.904 131.417 189.602 126.583 C 189.986 123.925,190.680 119.125,191.146 115.917 C 191.611 112.708,192.408 107.196,192.916 103.667 C 193.425 100.138,193.878 97.081,193.924 96.875 L 194.006 96.500 198.250 96.500 L 202.494 96.500 202.572 96.125 C 202.648 95.763,203.500 89.315,203.500 89.104 C 203.500 89.047,201.044 89.018,198.042 89.040 C 195.040 89.061,189.866 89.100,186.544 89.125 M164.580 89.456 L 163.411 89.513 161.767 93.715 C 160.157 97.829,156.578 107.031,152.515 117.500 C 148.939 126.714,147.283 130.913,147.175 131.040 C 147.118 131.107,147.265 129.656,147.503 127.814 C 147.866 124.997,147.897 124.450,147.701 124.375 C 147.573 124.326,144.063 124.324,139.903 124.371 L 132.338 124.456 132.418 124.103 C 132.462 123.909,132.843 121.539,133.263 118.836 C 133.684 116.134,134.064 113.865,134.107 113.795 C 134.151 113.724,137.215 113.667,140.917 113.667 C 144.618 113.667,147.686 113.604,147.733 113.527 C 147.822 113.384,149.000 106.526,149.000 106.154 C 149.000 105.989,147.565 105.968,142.146 106.053 L 135.293 106.161 135.381 105.705 C 135.430 105.455,135.754 103.480,136.102 101.316 L 136.733 97.382 139.075 97.275 C 140.363 97.216,143.720 97.168,146.534 97.167 L 151.652 97.167 151.742 96.625 C 152.007 95.034,152.667 90.293,152.667 89.978 L 152.667 89.612 142.385 89.727 C 136.730 89.790,132.076 89.868,132.043 89.901 C 131.970 89.975,131.580 92.458,128.914 109.833 C 127.768 117.304,126.532 125.361,126.167 127.738 C 125.803 130.115,125.538 132.093,125.579 132.135 C 125.781 132.337,153.221 131.848,153.350 131.639 C 153.423 131.521,154.141 129.578,154.944 127.321 L 156.406 123.217 159.495 123.109 C 165.484 122.900,166.649 122.942,166.736 123.375 C 166.778 123.581,166.932 125.469,167.080 127.569 C 167.227 129.670,167.386 131.451,167.434 131.527 C 167.481 131.604,168.985 131.667,170.775 131.667 L 174.031 131.667 173.931 130.875 C 173.876 130.440,173.567 126.933,173.245 123.083 C 172.922 119.233,172.401 113.083,172.086 109.417 C 171.771 105.750,171.286 100.050,171.009 96.750 C 170.731 93.450,170.461 90.431,170.409 90.042 L 170.313 89.333 168.031 89.366 C 166.777 89.385,165.224 89.425,164.580 89.456 M110.422 90.155 L 107.761 90.250 107.237 93.667 C 106.950 95.546,106.292 99.821,105.776 103.167 C 105.261 106.513,104.503 111.462,104.092 114.167 C 103.681 116.871,102.894 122.008,102.343 125.583 C 101.792 129.158,101.339 132.177,101.337 132.292 C 101.334 132.451,102.026 132.500,104.250 132.500 C 105.854 132.500,107.167 132.472,107.167 132.438 C 107.167 131.882,109.552 116.048,109.651 115.949 C 109.950 115.650,117.365 115.891,118.029 116.221 C 119.230 116.819,119.535 118.352,119.096 121.583 C 118.946 122.683,118.791 123.846,118.752 124.167 C 118.625 125.203,117.996 129.885,117.836 130.985 C 117.750 131.573,117.719 132.117,117.767 132.194 C 117.870 132.361,121.972 132.363,122.914 132.196 L 123.578 132.079 124.545 125.164 C 125.877 115.634,125.814 114.242,123.975 112.581 C 123.606 112.247,123.329 111.957,123.360 111.935 C 125.927 110.161,127.365 108.029,128.399 104.463 C 130.230 98.145,128.780 92.472,124.841 90.537 L 123.917 90.083 118.500 90.072 C 115.521 90.066,111.886 90.103,110.422 90.155 M219.563 95.899 C 222.843 97.504,223.829 103.543,222.237 112.276 C 220.817 120.066,217.521 124.596,213.121 124.807 C 207.835 125.060,205.732 120.086,207.151 110.691 C 208.885 99.216,213.966 93.161,219.563 95.899 M247.110 96.215 C 249.591 97.526,249.009 104.282,246.250 106.201 C 245.293 106.866,244.257 107.000,240.065 107.000 L 236.342 107.000 236.423 106.542 C 236.467 106.290,236.764 104.058,237.083 101.583 C 237.402 99.108,237.705 96.842,237.755 96.546 L 237.847 96.009 240.132 95.949 C 244.488 95.833,246.536 95.911,247.110 96.215 M121.833 97.792 C 124.127 98.938,123.557 105.132,120.937 107.535 C 120.080 108.321,119.164 108.471,114.773 108.540 L 110.797 108.602 110.898 107.843 C 110.953 107.425,111.350 104.927,111.780 102.292 L 112.562 97.500 116.906 97.500 C 120.708 97.500,121.323 97.537,121.833 97.792 M165.808 108.250 C 165.984 112.283,166.109 115.604,166.088 115.628 C 166.066 115.653,164.510 115.653,162.630 115.628 L 159.210 115.583 160.692 111.667 C 161.507 109.513,162.866 105.919,163.712 103.681 C 165.574 98.754,165.377 98.325,165.808 108.250 M277.069 121.621 L 276.388 121.683 275.941 125.883 C 275.695 128.193,275.495 130.140,275.497 130.208 C 275.499 130.277,276.850 130.333,278.500 130.333 C 280.150 130.333,281.500 130.277,281.500 130.208 C 281.500 130.140,281.688 128.409,281.917 126.363 C 282.146 124.317,282.333 122.386,282.333 122.071 L 282.333 121.500 280.042 121.529 C 278.781 121.545,277.444 121.586,277.069 121.621 " stroke="none" fill="#fbfbfb" fill-rule="evenodd"></path><path id="path1" d="M87.833 65.340 C 86.594 65.597,83.461 66.654,82.771 67.048 C 82.025 67.474,81.623 68.145,80.848 70.250 C 80.545 71.075,80.234 71.900,80.156 72.083 C 80.021 72.405,78.833 75.855,78.833 75.927 C 78.833 75.946,78.300 76.284,77.648 76.678 C 76.997 77.071,76.377 77.474,76.271 77.572 C 76.165 77.670,75.442 78.175,74.664 78.695 L 73.250 79.640 68.917 79.725 C 63.314 79.835,63.552 79.746,61.157 82.647 C 60.750 83.140,60.337 83.628,60.239 83.730 C 59.118 84.909,58.623 86.436,58.983 87.600 C 59.132 88.082,59.523 89.485,59.861 90.750 C 59.959 91.117,60.099 91.604,60.174 91.833 C 60.248 92.063,60.472 92.798,60.671 93.468 L 61.034 94.687 60.267 96.405 C 59.845 97.350,59.500 98.209,59.500 98.314 C 59.500 98.419,59.429 98.635,59.343 98.794 C 59.257 98.953,59.063 99.431,58.911 99.856 C 58.677 100.512,58.455 100.751,57.443 101.438 C 56.787 101.883,56.105 102.379,55.927 102.540 C 55.749 102.701,55.548 102.833,55.480 102.833 C 55.413 102.833,55.258 102.930,55.137 103.049 C 55.016 103.167,54.429 103.619,53.833 104.053 C 51.907 105.455,51.759 105.573,51.131 106.215 C 50.726 106.630,50.479 107.061,50.417 107.466 C 50.364 107.805,50.249 108.490,50.161 108.986 C 49.902 110.440,49.964 114.021,50.254 114.405 C 50.659 114.941,53.500 118.001,54.833 119.338 C 55.891 120.400,56.345 120.794,57.320 121.500 C 57.486 121.619,57.755 122.408,58.089 123.750 C 58.249 124.392,58.436 125.024,58.505 125.154 C 58.575 125.288,58.486 125.726,58.302 126.154 C 57.198 128.725,55.500 133.861,55.500 134.630 C 55.500 135.312,56.194 136.985,56.542 137.139 C 56.610 137.169,56.667 137.261,56.667 137.342 C 56.667 137.472,57.945 139.451,58.169 139.667 C 58.217 139.712,58.470 140.012,58.732 140.333 C 59.371 141.116,62.574 144.578,63.452 145.435 C 64.363 146.326,64.566 146.353,69.417 146.223 C 74.007 146.100,73.594 145.959,74.147 147.833 C 74.350 148.521,74.694 149.646,74.910 150.333 C 75.127 151.021,75.390 151.908,75.495 152.304 C 75.673 152.973,77.064 154.714,78.917 156.584 C 79.192 156.861,79.751 157.462,80.160 157.919 C 81.316 159.212,82.399 159.779,85.250 160.585 C 85.800 160.741,86.467 160.935,86.733 161.017 C 87.584 161.280,88.899 160.893,89.755 160.127 C 89.884 160.011,90.370 159.654,90.835 159.333 C 91.300 159.012,92.227 158.337,92.894 157.833 C 93.562 157.329,94.317 156.767,94.572 156.583 C 94.828 156.400,95.136 156.156,95.257 156.042 C 95.417 155.890,96.358 155.833,98.743 155.833 L 102.009 155.833 103.296 156.804 C 104.004 157.338,104.958 158.031,105.417 158.346 C 105.875 158.660,106.287 158.954,106.333 159.000 C 106.610 159.276,108.833 160.676,109.250 160.836 C 109.760 161.032,110.973 160.953,111.917 160.664 C 112.192 160.580,112.867 160.384,113.417 160.229 C 113.967 160.074,114.488 159.884,114.575 159.807 C 114.662 159.730,114.854 159.667,115.001 159.667 C 116.358 159.667,117.335 158.543,118.161 156.030 C 120.041 150.314,120.043 150.205,118.309 146.363 C 118.047 145.784,117.833 145.279,117.833 145.242 C 117.833 145.060,116.592 143.324,115.940 142.595 C 115.249 141.822,115.222 141.757,115.496 141.511 C 115.810 141.230,116.086 140.065,116.250 138.333 C 116.306 137.737,116.420 136.875,116.503 136.417 C 116.586 135.958,116.745 135.009,116.857 134.307 L 117.061 133.030 117.489 133.494 C 117.724 133.749,118.650 134.746,119.546 135.709 C 120.443 136.672,121.328 137.635,121.514 137.850 C 121.700 138.064,122.577 139.015,123.463 139.962 L 125.075 141.685 128.386 141.634 C 131.554 141.586,131.709 141.568,131.990 141.221 L 132.284 140.858 132.647 141.221 C 132.997 141.571,133.112 141.581,135.963 141.524 C 137.588 141.492,143.985 141.416,150.179 141.357 C 162.422 141.240,161.798 141.294,162.072 140.326 C 162.136 140.101,162.258 139.748,162.344 139.542 C 162.721 138.636,162.822 138.365,163.104 137.500 C 163.268 136.996,163.453 136.508,163.515 136.417 C 163.577 136.325,163.684 135.990,163.752 135.672 C 163.820 135.354,163.938 134.979,164.014 134.839 C 164.090 134.698,164.316 134.115,164.515 133.542 L 164.878 132.500 165.856 132.500 C 166.579 132.500,166.909 132.578,167.125 132.800 C 167.285 132.966,168.017 133.768,168.750 134.583 C 169.483 135.399,170.271 136.265,170.500 136.508 C 170.969 137.004,173.571 139.845,174.083 140.419 C 174.682 141.089,174.942 141.125,178.512 141.019 C 182.874 140.889,182.839 140.922,182.344 137.333 C 182.262 136.737,182.145 135.313,182.084 134.167 L 181.975 132.083 182.529 132.681 C 183.033 133.224,184.314 134.658,186.083 136.662 C 186.450 137.077,186.788 137.454,186.835 137.500 C 186.881 137.546,187.444 138.182,188.085 138.913 C 189.914 141.001,189.429 140.821,193.266 140.828 C 196.250 140.833,196.643 140.802,196.873 140.542 C 197.109 140.275,197.542 138.091,197.990 134.917 C 198.080 134.275,198.233 133.262,198.329 132.667 C 198.425 132.071,198.621 130.796,198.764 129.833 C 198.908 128.871,199.093 127.671,199.175 127.167 C 199.257 126.662,199.438 125.394,199.578 124.348 C 199.819 122.540,200.000 121.819,200.000 122.669 C 200.000 122.884,200.073 123.290,200.161 123.572 C 200.250 123.853,200.451 124.533,200.608 125.083 C 200.949 126.279,201.978 128.315,202.730 129.280 C 203.362 130.092,204.639 131.620,205.000 131.995 C 205.137 132.139,205.510 132.592,205.829 133.003 C 206.147 133.414,206.524 133.862,206.667 134.000 C 206.809 134.137,207.185 134.587,207.502 135.000 C 207.819 135.412,208.155 135.831,208.248 135.929 C 208.341 136.028,208.788 136.553,209.243 137.096 C 212.116 140.531,214.303 141.725,218.142 141.954 C 220.696 142.107,225.427 140.977,225.806 140.125 C 225.836 140.056,225.967 140.000,226.097 140.000 C 226.227 140.000,226.333 139.942,226.333 139.871 C 226.333 139.800,226.577 139.611,226.875 139.450 C 227.173 139.289,228.090 138.480,228.913 137.654 C 230.081 136.480,230.447 136.200,230.580 136.375 C 231.568 137.676,233.157 139.660,233.450 139.958 C 233.806 140.321,233.922 140.333,236.955 140.333 C 241.071 140.333,240.856 140.522,241.329 136.500 C 241.421 135.721,241.573 134.596,241.667 134.000 C 241.762 133.404,241.958 132.017,242.104 130.917 C 242.249 129.817,242.431 128.504,242.507 128.000 C 242.584 127.496,242.738 126.315,242.851 125.375 C 243.038 123.809,243.085 123.667,243.409 123.667 C 243.800 123.667,243.801 123.593,243.342 127.417 C 243.243 128.242,243.118 129.367,243.064 129.917 L 242.965 130.917 243.847 132.083 C 244.331 132.725,244.771 133.287,244.823 133.333 C 244.875 133.379,245.255 133.867,245.667 134.417 C 246.079 134.967,246.454 135.454,246.500 135.500 C 246.546 135.546,247.146 136.332,247.833 137.248 C 248.521 138.163,249.367 139.205,249.713 139.564 L 250.343 140.217 252.114 140.108 C 253.088 140.049,254.547 140.000,255.355 140.000 C 257.335 140.000,257.257 140.137,257.805 135.680 C 257.942 134.574,258.127 134.488,258.667 135.281 C 258.896 135.617,259.158 135.973,259.250 136.071 C 259.342 136.170,259.746 136.683,260.148 137.212 C 261.681 139.228,263.220 140.188,266.250 141.021 C 270.072 142.071,275.274 140.768,278.144 138.042 C 279.413 136.836,279.389 136.844,279.777 137.500 C 279.939 137.775,280.126 138.000,280.191 138.000 C 280.257 138.000,280.353 138.131,280.405 138.292 C 280.457 138.452,280.728 138.827,281.008 139.125 L 281.517 139.667 284.913 139.667 C 287.620 139.667,288.357 139.619,288.545 139.431 C 288.816 139.160,289.293 136.329,289.666 132.772 C 289.901 130.542,289.957 130.478,290.755 131.541 C 291.116 132.023,291.451 132.454,291.498 132.500 C 291.545 132.546,291.921 133.033,292.333 133.583 C 292.745 134.133,293.121 134.621,293.167 134.667 C 293.214 134.712,293.474 135.050,293.746 135.417 C 294.018 135.783,294.299 136.158,294.372 136.250 C 294.646 136.596,295.543 137.769,295.890 138.234 C 296.088 138.500,296.415 138.893,296.617 139.109 C 297.384 139.925,304.333 139.624,304.333 138.775 C 304.333 138.662,304.848 134.968,305.010 133.917 C 305.360 131.649,305.493 130.749,305.497 130.625 C 305.504 130.335,305.782 130.552,306.245 131.212 C 306.806 132.010,306.787 131.984,307.592 133.000 C 308.428 134.054,308.494 134.140,309.333 135.253 C 309.746 135.801,310.142 136.324,310.213 136.416 C 310.284 136.508,310.769 137.146,311.290 137.833 C 312.520 139.455,312.160 139.328,315.521 139.331 C 318.869 139.334,319.439 139.259,319.694 138.782 C 319.876 138.443,319.924 138.152,320.407 134.500 C 320.547 133.446,320.738 132.096,320.832 131.500 C 320.926 130.904,321.119 129.554,321.262 128.500 C 321.404 127.446,321.581 126.171,321.656 125.667 C 321.731 125.162,321.887 124.027,322.003 123.144 L 322.215 121.539 322.964 121.436 C 323.376 121.380,326.060 121.333,328.928 121.333 C 334.270 121.333,334.667 121.288,334.667 120.671 C 334.667 120.492,335.438 115.700,335.662 114.490 C 335.984 112.748,335.828 112.175,334.722 111.038 C 334.609 110.921,334.231 110.472,333.883 110.040 C 333.535 109.609,333.050 109.029,332.807 108.753 C 332.563 108.476,331.642 107.388,330.761 106.333 L 329.158 104.417 333.908 104.330 C 339.715 104.224,339.004 104.714,339.583 100.417 C 339.719 99.408,339.905 98.096,339.995 97.500 C 340.217 96.040,340.207 95.400,339.958 95.137 C 339.844 95.016,339.225 94.322,338.583 93.594 C 337.942 92.867,337.229 92.074,337.000 91.832 C 336.616 91.426,335.427 90.083,334.000 88.442 C 333.679 88.073,333.093 87.436,332.697 87.026 L 331.978 86.280 324.614 86.389 C 320.564 86.449,310.762 86.573,302.833 86.663 C 294.904 86.754,288.104 86.870,287.722 86.922 C 286.659 87.066,286.654 87.079,286.226 90.917 C 285.806 94.687,285.769 95.602,286.024 95.963 C 286.208 96.223,287.710 97.962,288.417 98.734 C 288.510 98.834,289.035 99.442,289.584 100.083 C 290.134 100.725,290.697 101.362,290.836 101.500 C 290.976 101.638,291.425 102.162,291.836 102.667 C 292.246 103.171,292.688 103.666,292.818 103.768 C 293.059 103.955,292.994 104.997,292.511 108.750 C 292.428 109.392,292.241 110.892,292.096 112.083 C 291.951 113.275,291.755 114.850,291.660 115.583 C 291.565 116.317,291.378 117.854,291.244 119.000 C 291.110 120.146,290.925 121.646,290.833 122.333 C 290.689 123.414,290.375 125.971,290.051 128.708 C 289.975 129.356,289.667 129.873,289.667 129.355 C 289.667 129.233,289.146 128.536,287.784 126.832 C 287.674 126.695,287.173 126.057,286.671 125.416 C 286.169 124.775,285.719 124.212,285.671 124.167 C 285.580 124.080,285.003 123.338,283.945 121.946 C 283.592 121.481,283.333 120.952,283.333 120.693 C 283.333 120.166,282.804 118.655,282.399 118.025 C 282.143 117.627,280.886 116.039,280.665 115.833 C 280.615 115.787,280.314 115.413,279.996 115.001 C 279.214 113.989,278.835 113.531,278.292 112.945 C 278.040 112.673,277.833 112.405,277.832 112.350 C 277.831 112.295,277.587 111.987,277.290 111.667 C 276.993 111.346,276.325 110.558,275.807 109.917 C 274.195 107.923,272.858 106.827,270.958 105.942 C 270.034 105.512,270.279 105.015,271.787 104.257 C 272.829 103.734,272.773 103.732,273.308 104.313 C 273.790 104.836,273.945 105.016,275.406 106.750 C 275.947 107.392,276.433 107.954,276.486 108.000 C 276.540 108.046,276.945 108.515,277.388 109.042 L 278.192 110.000 281.411 110.000 C 285.756 110.000,285.420 110.325,285.404 106.140 C 285.385 101.085,284.360 98.622,280.838 95.167 C 280.698 95.029,280.058 94.319,279.417 93.589 C 278.775 92.859,278.137 92.139,278.000 91.989 C 277.123 91.036,275.422 89.113,275.151 88.768 C 272.955 85.976,267.292 84.930,263.083 86.538 C 260.859 87.388,258.454 89.557,256.976 92.046 L 256.107 93.509 255.678 93.031 C 255.443 92.769,254.725 91.967,254.083 91.250 C 250.539 87.289,250.997 87.418,240.680 87.482 C 231.129 87.541,231.943 87.344,231.654 89.667 C 231.511 90.810,231.006 95.037,231.002 95.118 C 231.001 95.137,230.644 94.764,230.208 94.289 C 229.222 93.213,229.285 93.284,228.085 91.901 C 225.495 88.915,223.769 87.521,222.000 86.985 C 216.935 85.450,212.486 86.592,208.500 90.450 L 207.250 91.660 206.442 90.788 C 205.997 90.309,205.245 89.479,204.770 88.943 L 203.906 87.970 196.161 88.001 C 187.287 88.036,179.912 88.199,179.749 88.362 C 179.512 88.599,179.283 89.887,178.749 93.994 C 178.391 96.741,178.432 96.677,177.608 95.795 C 176.996 95.141,174.588 92.538,173.361 91.204 C 173.117 90.939,172.408 90.180,171.786 89.519 L 170.654 88.316 166.833 88.366 C 163.643 88.408,162.968 88.460,162.752 88.676 C 162.539 88.890,161.880 90.504,159.985 95.457 L 159.842 95.831 159.380 95.369 C 159.125 95.115,158.279 94.198,157.500 93.331 C 156.721 92.464,155.858 91.529,155.583 91.253 C 155.308 90.976,154.711 90.337,154.256 89.833 C 153.802 89.329,153.328 88.854,153.205 88.778 C 152.950 88.621,137.114 88.647,133.667 88.810 L 131.417 88.917 131.138 89.500 C 130.984 89.821,130.781 90.646,130.686 91.333 C 130.591 92.021,130.465 92.932,130.407 93.358 L 130.301 94.132 128.275 92.089 C 124.966 88.749,125.128 88.787,114.860 88.992 C 106.636 89.157,106.976 89.111,106.763 90.083 C 106.575 90.938,106.332 92.520,106.231 93.542 C 106.170 94.160,106.061 94.667,105.989 94.667 C 105.831 94.667,105.798 94.633,104.000 92.655 C 100.431 88.728,98.933 87.937,95.083 87.952 C 87.022 87.982,80.424 96.126,77.829 109.250 C 77.721 109.800,77.565 110.587,77.484 111.000 C 76.406 116.477,76.453 122.415,77.604 126.333 C 78.482 129.324,79.475 130.861,82.667 134.172 C 82.987 134.505,83.960 135.558,84.828 136.513 C 85.696 137.469,87.254 139.102,88.290 140.144 C 89.530 141.391,90.043 142.007,89.795 141.947 C 89.587 141.897,89.117 141.808,88.750 141.750 C 86.730 141.429,85.471 141.098,84.167 140.548 C 82.150 139.697,78.102 137.400,77.260 136.629 C 77.083 136.467,76.888 136.333,76.827 136.333 C 76.767 136.333,76.565 136.202,76.379 136.042 C 76.193 135.881,75.701 135.466,75.285 135.119 C 72.161 132.516,68.893 119.993,69.903 114.500 C 70.558 110.941,71.597 107.347,72.592 105.204 C 72.816 104.720,73.000 104.273,73.000 104.211 C 73.000 104.022,74.683 100.793,75.106 100.170 C 75.323 99.850,75.500 99.500,75.500 99.392 C 75.500 99.283,75.559 99.169,75.631 99.139 C 75.703 99.108,76.112 98.558,76.538 97.917 C 77.561 96.379,79.251 94.645,81.737 92.583 C 82.179 92.217,82.730 91.748,82.961 91.542 C 83.193 91.335,83.427 91.167,83.483 91.166 C 83.538 91.166,83.801 90.979,84.068 90.750 C 84.334 90.521,84.601 90.333,84.661 90.333 C 84.721 90.333,84.916 90.201,85.094 90.038 C 86.256 88.978,91.640 86.149,93.833 85.447 C 98.076 84.090,104.363 83.722,110.083 84.497 C 112.513 84.827,114.522 85.510,117.472 87.010 C 120.610 88.606,120.765 88.589,122.080 86.505 C 122.586 85.703,123.000 84.962,123.000 84.857 C 123.000 84.752,123.075 84.667,123.167 84.667 C 123.258 84.667,123.333 84.598,123.333 84.515 C 123.333 84.431,123.628 83.844,123.987 83.209 C 124.987 81.445,125.004 80.913,124.175 77.417 C 123.072 72.771,123.295 73.276,121.477 71.290 C 118.447 67.978,117.586 67.146,116.838 66.810 C 115.241 66.090,113.051 65.454,111.917 65.381 L 110.750 65.306 108.833 66.652 C 106.432 68.338,106.372 68.382,104.862 69.535 L 103.617 70.486 100.453 70.459 L 97.290 70.432 96.609 69.939 C 96.234 69.667,95.779 69.308,95.599 69.139 C 95.418 68.971,95.215 68.833,95.147 68.833 C 95.079 68.833,94.925 68.736,94.804 68.617 C 94.564 68.382,91.373 66.091,90.618 65.611 C 90.048 65.250,88.839 65.132,87.833 65.340 M90.940 67.140 C 91.752 67.675,93.325 68.791,94.434 69.621 C 97.152 71.653,96.655 71.500,100.555 71.500 L 103.966 71.500 106.191 69.862 C 111.646 65.847,111.268 65.980,114.333 67.007 C 117.968 68.225,118.089 68.379,119.151 73.138 C 120.106 77.412,120.010 77.913,117.536 81.583 C 116.521 83.090,116.523 83.090,113.564 81.608 C 107.429 78.536,99.093 77.860,90.872 79.766 C 84.723 81.192,74.887 88.147,71.255 93.636 C 66.336 101.070,64.006 109.939,65.071 117.167 C 66.780 128.764,71.934 135.811,82.442 140.922 C 89.499 144.354,101.550 143.963,109.397 140.047 L 111.211 139.142 111.878 139.779 C 112.631 140.499,114.169 143.520,114.575 145.078 C 114.821 146.024,114.821 146.027,114.088 148.557 C 112.523 153.962,112.668 153.770,109.333 154.844 C 105.752 155.998,106.057 156.063,102.250 153.345 C 100.967 152.429,99.542 151.416,99.083 151.093 L 98.250 150.507 94.776 150.491 C 91.398 150.476,91.287 150.486,90.750 150.863 C 90.446 151.076,88.958 152.168,87.442 153.290 C 83.785 155.996,83.876 155.957,82.319 155.530 C 77.128 154.105,77.046 154.014,75.229 147.695 L 74.255 144.307 73.169 143.532 C 72.572 143.106,71.629 142.373,71.074 141.902 C 69.580 140.635,69.885 140.689,65.331 140.883 C 60.117 141.104,60.147 141.120,57.508 136.748 C 56.170 134.533,56.017 135.432,59.247 126.534 C 59.532 125.749,59.594 125.350,59.491 124.951 C 59.416 124.657,59.062 123.264,58.705 121.856 L 58.055 119.295 55.486 117.471 C 54.073 116.468,52.485 115.209,51.958 114.673 L 51.000 113.700 51.000 112.126 C 51.000 110.505,51.268 108.034,51.516 107.378 C 51.649 107.025,54.337 104.933,57.857 102.444 L 59.464 101.307 60.666 98.362 C 62.208 94.583,62.182 94.865,61.275 91.806 C 60.026 87.592,59.782 86.495,59.993 86.031 C 60.267 85.430,61.833 83.405,63.030 82.104 L 64.085 80.957 66.084 80.823 C 67.184 80.749,69.327 80.683,70.847 80.677 L 73.611 80.667 76.632 78.649 C 79.391 76.806,79.674 76.571,79.903 75.941 C 83.080 67.167,82.498 67.959,86.665 66.742 C 89.209 66.000,89.210 66.000,90.940 67.140 M333.703 73.973 C 333.454 74.233,332.537 75.331,331.667 76.413 C 330.796 77.494,329.986 78.479,329.868 78.601 C 329.525 78.955,329.310 79.742,329.453 80.124 C 329.788 81.024,334.115 85.398,336.596 87.345 L 338.417 88.773 339.375 90.715 C 339.902 91.783,340.334 92.715,340.334 92.787 C 340.335 92.858,340.444 93.125,340.576 93.379 C 340.709 93.633,341.073 94.608,341.386 95.545 C 341.894 97.068,342.143 97.978,342.676 100.250 C 343.812 105.093,343.155 111.575,341.004 116.750 C 340.928 116.933,340.657 117.608,340.401 118.250 C 338.039 124.179,334.766 128.341,329.250 132.427 C 328.517 132.970,327.879 133.455,327.833 133.505 C 327.787 133.554,327.351 133.847,326.862 134.156 C 324.800 135.461,324.630 135.983,325.713 137.699 C 328.269 141.753,328.847 142.621,329.194 142.930 C 329.408 143.120,330.146 143.904,330.833 144.671 C 332.763 146.824,333.119 147.143,333.721 147.255 C 334.300 147.364,335.223 147.077,335.673 146.648 C 335.807 146.520,336.217 146.216,336.583 145.970 C 336.950 145.725,337.662 145.219,338.167 144.846 C 340.055 143.447,339.578 143.560,344.190 143.426 C 349.328 143.277,349.576 143.217,350.931 141.795 C 352.259 140.401,353.604 138.651,354.136 137.625 L 354.570 136.789 354.092 134.936 C 353.620 133.103,353.481 132.630,352.582 129.798 L 352.122 128.345 352.541 127.464 C 352.771 126.980,353.165 126.021,353.416 125.333 C 354.286 122.952,354.636 122.167,354.829 122.167 C 354.910 122.167,355.075 122.070,355.196 121.953 C 355.318 121.835,355.679 121.558,356.000 121.338 C 356.321 121.117,357.146 120.520,357.833 120.012 C 359.420 118.838,359.298 118.930,360.095 118.293 C 360.469 117.994,360.983 117.600,361.239 117.417 C 362.646 116.407,362.829 115.853,362.952 112.234 C 363.066 108.877,363.053 108.805,362.153 107.833 C 358.132 103.495,356.847 102.171,356.651 102.168 C 356.596 102.167,356.371 102.010,356.151 101.819 C 355.930 101.627,355.660 101.420,355.550 101.358 C 355.440 101.297,355.237 100.834,355.099 100.331 C 354.962 99.828,354.739 99.018,354.604 98.531 C 354.330 97.544,354.368 97.331,355.158 95.458 C 355.984 93.500,357.225 89.295,357.237 88.417 C 357.249 87.457,356.295 85.528,355.051 84.000 C 354.939 83.862,354.613 83.450,354.326 83.083 C 353.871 82.503,352.218 80.688,349.467 77.752 L 348.684 76.917 343.976 76.957 C 341.387 76.979,339.226 76.938,339.176 76.866 C 338.992 76.604,335.644 73.968,335.203 73.738 C 334.539 73.392,334.209 73.444,333.703 73.973 M337.398 76.737 C 338.873 77.935,339.119 78.075,339.732 78.069 C 340.108 78.065,342.125 77.999,344.213 77.921 L 348.010 77.780 348.814 78.614 C 350.458 80.320,352.333 83.256,352.333 84.124 C 352.333 84.573,350.870 89.012,349.647 92.270 L 349.264 93.291 349.697 94.687 C 349.935 95.455,350.300 96.839,350.509 97.763 L 350.888 99.444 351.863 100.075 C 353.918 101.406,357.097 103.861,357.620 104.523 C 358.249 105.318,358.285 105.721,357.991 108.763 C 357.707 111.705,357.686 111.730,351.729 115.975 C 349.657 117.452,349.663 117.445,349.084 119.083 C 348.825 119.817,348.288 121.185,347.890 122.123 C 347.018 124.182,347.023 123.852,347.819 126.361 C 349.766 132.500,349.757 132.325,348.230 134.351 C 345.378 138.135,345.771 137.957,339.878 138.131 L 335.556 138.258 334.069 139.353 C 330.736 141.808,330.012 142.252,329.770 141.991 C 329.508 141.709,326.171 136.539,326.054 136.233 C 326.007 136.112,326.587 135.612,327.445 135.033 C 334.013 130.601,337.352 126.984,340.168 121.250 C 345.390 110.615,345.587 101.824,340.841 91.325 C 339.216 87.731,337.108 85.250,332.750 81.805 C 331.650 80.935,330.661 80.114,330.551 79.981 C 330.388 79.782,330.732 79.267,332.456 77.123 L 334.560 74.506 335.155 74.952 C 335.482 75.197,336.492 76.000,337.398 76.737 M270.228 87.085 C 274.990 88.325,278.007 93.746,277.261 99.719 L 277.143 100.667 274.321 100.667 L 271.500 100.667 271.500 99.781 C 271.500 95.932,269.784 94.109,266.425 94.388 C 263.019 94.671,261.175 96.734,261.169 100.271 C 261.164 102.622,262.074 103.478,266.252 105.051 C 273.991 107.966,275.832 110.039,275.825 115.833 C 275.814 125.561,270.787 131.936,263.167 131.886 C 255.980 131.838,252.506 128.094,252.501 120.389 C 252.500 117.583,252.206 117.833,255.495 117.833 L 258.287 117.833 258.379 119.292 C 258.821 126.271,268.208 126.750,269.649 119.867 C 270.478 115.903,269.609 114.649,264.937 113.062 C 257.326 110.477,255.339 108.064,255.550 101.667 C 255.885 91.533,262.412 85.049,270.228 87.085 M220.106 87.582 C 227.850 89.064,230.767 98.501,228.066 113.333 C 225.882 125.326,221.014 131.712,213.458 132.496 C 202.571 133.625,198.137 123.368,202.009 106.011 C 204.876 93.160,211.896 86.012,220.106 87.582 M331.588 88.708 C 331.523 89.465,331.343 91.133,331.188 92.417 L 330.906 94.750 329.161 94.855 C 328.202 94.912,325.037 94.968,322.128 94.980 L 316.840 95.000 316.753 95.375 C 316.705 95.581,316.415 97.724,316.109 100.136 L 315.552 104.522 321.693 104.403 C 326.828 104.303,327.833 104.320,327.833 104.511 C 327.833 104.832,327.012 111.173,326.913 111.617 L 326.831 111.984 320.762 112.034 C 317.425 112.061,314.656 112.121,314.610 112.168 C 314.564 112.214,314.068 116.185,313.507 120.993 C 312.947 125.800,312.462 129.760,312.430 129.792 C 312.398 129.824,311.051 129.895,309.436 129.951 C 306.053 130.067,306.369 130.275,306.671 128.132 C 306.903 126.486,308.861 110.429,310.589 96.000 C 311.703 86.696,311.464 87.672,312.636 87.644 C 313.650 87.619,325.778 87.419,329.478 87.365 L 331.706 87.333 331.588 88.708 M310.445 88.792 C 310.285 90.535,309.804 94.726,309.737 94.958 C 309.691 95.118,308.702 95.167,305.515 95.167 C 303.226 95.167,301.318 95.224,301.274 95.294 C 301.231 95.364,300.584 100.371,299.836 106.419 C 299.088 112.468,298.124 120.267,297.694 123.750 L 296.910 130.083 293.955 130.129 L 291.000 130.174 291.000 129.796 C 291.000 129.587,291.488 125.479,292.084 120.667 C 292.681 115.854,293.392 110.079,293.665 107.833 C 293.937 105.587,294.387 101.894,294.664 99.626 C 294.940 97.358,295.167 95.461,295.167 95.412 C 295.167 95.363,293.322 95.330,291.067 95.339 C 288.812 95.348,286.929 95.318,286.882 95.271 C 286.772 95.161,287.509 88.697,287.687 88.210 L 287.824 87.837 294.203 87.792 C 297.712 87.766,302.825 87.728,305.566 87.706 L 310.548 87.667 310.445 88.792 M250.058 89.062 C 256.185 92.071,255.951 105.290,249.686 110.033 L 249.122 110.460 249.823 111.094 C 250.954 112.115,251.500 113.585,251.500 115.606 C 251.500 116.491,250.052 130.028,249.912 130.458 C 249.861 130.615,249.109 130.667,246.909 130.667 L 243.974 130.667 244.064 130.208 C 244.113 129.956,244.308 128.287,244.497 126.500 C 244.686 124.712,244.951 122.230,245.087 120.984 C 245.583 116.425,245.231 114.978,243.509 114.500 C 242.589 114.244,235.334 114.281,235.331 114.542 C 235.330 114.656,235.066 116.962,234.745 119.667 C 234.424 122.371,233.999 125.980,233.801 127.687 L 233.440 130.790 230.617 130.909 C 229.065 130.975,227.731 130.964,227.652 130.886 C 227.573 130.806,228.431 123.450,229.582 114.330 C 232.435 91.744,232.814 88.832,232.927 88.650 C 232.988 88.551,236.091 88.508,241.054 88.537 L 249.083 88.583 250.058 89.062 M97.712 89.257 C 102.462 90.612,105.567 96.526,104.918 102.985 L 104.800 104.167 101.847 104.167 L 98.895 104.167 98.701 102.516 C 97.773 94.610,90.712 94.633,87.102 102.554 C 84.715 107.793,83.331 117.092,84.264 121.632 C 85.797 129.095,93.520 127.330,96.238 118.896 L 96.513 118.042 99.330 117.922 C 103.038 117.763,102.835 117.454,101.460 121.167 C 98.305 129.686,93.715 134.084,88.000 134.063 C 79.645 134.033,75.972 124.958,78.597 110.833 C 81.413 95.683,89.245 86.842,97.712 89.257 M203.500 89.104 C 203.500 89.315,202.648 95.763,202.572 96.125 L 202.494 96.500 198.250 96.500 L 194.006 96.500 193.924 96.875 C 193.878 97.081,193.425 100.138,192.916 103.667 C 192.408 107.196,191.611 112.708,191.146 115.917 C 190.680 119.125,189.986 123.925,189.602 126.583 L 188.904 131.417 185.869 131.462 C 182.956 131.506,182.833 131.494,182.833 131.183 C 182.833 131.004,183.136 128.809,183.506 126.304 C 183.876 123.799,184.367 120.475,184.598 118.917 C 184.828 117.358,185.277 114.321,185.596 112.167 C 185.915 110.013,186.514 105.888,186.926 103.000 C 187.339 100.112,187.721 97.502,187.775 97.198 L 187.874 96.646 183.729 96.679 C 179.975 96.708,179.578 96.685,179.528 96.433 C 179.479 96.186,180.221 90.489,180.425 89.544 L 180.505 89.171 186.544 89.125 C 189.866 89.100,195.040 89.061,198.042 89.040 C 201.044 89.018,203.500 89.047,203.500 89.104 M170.409 90.042 C 170.461 90.431,170.731 93.450,171.009 96.750 C 171.286 100.050,171.771 105.750,172.086 109.417 C 172.401 113.083,172.922 119.233,173.245 123.083 C 173.567 126.933,173.876 130.440,173.931 130.875 L 174.031 131.667 170.775 131.667 C 168.985 131.667,167.481 131.604,167.434 131.527 C 167.386 131.451,167.227 129.670,167.080 127.569 C 166.932 125.469,166.778 123.581,166.736 123.375 C 166.649 122.942,165.484 122.900,159.495 123.109 L 156.406 123.217 154.944 127.321 C 154.141 129.578,153.423 131.521,153.350 131.639 C 153.221 131.848,125.781 132.337,125.579 132.135 C 125.538 132.093,125.803 130.115,126.167 127.738 C 126.532 125.361,127.768 117.304,128.914 109.833 C 131.580 92.458,131.970 89.975,132.043 89.901 C 132.076 89.868,136.730 89.790,142.385 89.727 L 152.667 89.612 152.667 89.978 C 152.667 90.293,152.007 95.034,151.742 96.625 L 151.652 97.167 146.534 97.167 C 143.720 97.168,140.363 97.216,139.075 97.275 L 136.733 97.382 136.102 101.316 C 135.754 103.480,135.430 105.455,135.381 105.705 L 135.293 106.161 142.146 106.053 C 147.565 105.968,149.000 105.989,149.000 106.154 C 149.000 106.526,147.822 113.384,147.733 113.527 C 147.686 113.604,144.618 113.667,140.917 113.667 C 137.215 113.667,134.151 113.724,134.107 113.795 C 134.064 113.865,133.684 116.134,133.263 118.836 C 132.843 121.539,132.462 123.909,132.418 124.103 L 132.338 124.456 139.903 124.371 C 144.063 124.324,147.573 124.326,147.701 124.375 C 147.897 124.450,147.866 124.997,147.503 127.814 C 147.265 129.656,147.118 131.107,147.175 131.040 C 147.283 130.913,148.939 126.714,152.515 117.500 C 156.578 107.031,160.157 97.829,161.767 93.715 L 163.411 89.513 164.580 89.456 C 165.224 89.425,166.777 89.385,168.031 89.366 L 170.313 89.333 170.409 90.042 M124.841 90.537 C 131.322 93.720,130.397 107.073,123.360 111.935 C 123.329 111.957,123.606 112.247,123.975 112.581 C 125.814 114.242,125.877 115.634,124.545 125.164 L 123.578 132.079 122.914 132.196 C 121.972 132.363,117.870 132.361,117.767 132.194 C 117.719 132.117,117.750 131.573,117.836 130.985 C 117.996 129.885,118.625 125.203,118.752 124.167 C 118.791 123.846,118.946 122.683,119.096 121.583 C 119.535 118.352,119.230 116.819,118.029 116.221 C 117.365 115.891,109.950 115.650,109.651 115.949 C 109.552 116.048,107.167 131.882,107.167 132.438 C 107.167 132.472,105.854 132.500,104.250 132.500 C 102.026 132.500,101.334 132.451,101.337 132.292 C 101.339 132.177,101.792 129.158,102.343 125.583 C 102.894 122.008,103.681 116.871,104.092 114.167 C 104.503 111.462,105.261 106.513,105.776 103.167 C 106.292 99.821,106.950 95.546,107.237 93.667 L 107.761 90.250 110.422 90.155 C 111.886 90.103,115.521 90.066,118.500 90.072 L 123.917 90.083 124.841 90.537 M215.624 95.505 C 211.461 96.551,208.480 101.893,207.151 110.691 C 205.732 120.086,207.835 125.060,213.121 124.807 C 217.521 124.596,220.817 120.066,222.237 112.276 C 224.366 100.601,221.750 93.965,215.624 95.505 M240.132 95.949 L 237.847 96.009 237.755 96.546 C 237.705 96.842,237.402 99.108,237.083 101.583 C 236.764 104.058,236.467 106.290,236.423 106.542 L 236.342 107.000 240.065 107.000 C 245.394 107.000,246.318 106.735,247.427 104.886 C 248.826 102.556,249.110 98.366,247.969 96.915 C 247.178 95.909,246.194 95.788,240.132 95.949 M111.780 102.292 C 111.350 104.927,110.953 107.425,110.898 107.843 L 110.797 108.602 114.773 108.540 C 119.164 108.471,120.080 108.321,120.937 107.535 C 123.557 105.132,124.127 98.938,121.833 97.792 C 121.323 97.537,120.708 97.500,116.906 97.500 L 112.562 97.500 111.780 102.292 M180.063 98.802 C 180.418 99.232,181.468 100.406,182.396 101.410 C 183.324 102.415,184.417 103.601,184.824 104.045 L 185.564 104.853 185.363 106.468 C 185.251 107.357,185.090 108.533,185.003 109.083 C 184.916 109.633,184.734 110.871,184.599 111.833 C 184.463 112.796,184.271 114.071,184.172 114.667 C 184.074 115.263,183.885 116.537,183.754 117.500 C 183.622 118.462,183.435 119.737,183.339 120.333 C 183.243 120.929,183.052 122.204,182.916 123.167 C 182.779 124.129,182.597 125.367,182.510 125.917 C 182.424 126.467,182.266 127.592,182.159 128.417 C 181.884 130.534,181.787 130.629,181.647 128.917 C 181.580 128.092,181.406 125.917,181.259 124.083 C 181.113 122.250,180.922 119.925,180.833 118.917 C 180.745 117.908,180.558 115.621,180.417 113.833 C 180.276 112.046,180.088 109.758,180.000 108.750 C 179.912 107.742,179.724 105.454,179.582 103.667 C 179.441 101.879,179.279 99.873,179.223 99.208 C 179.105 97.797,179.195 97.753,180.063 98.802 M163.712 103.681 C 162.866 105.919,161.507 109.513,160.692 111.667 L 159.210 115.583 162.630 115.628 C 164.510 115.653,166.066 115.653,166.088 115.628 C 166.169 115.535,165.484 100.888,165.370 100.264 C 165.255 99.640,165.181 99.793,163.712 103.681 M222.000 105.958 C 222.003 112.820,218.754 121.426,215.542 123.065 L 215.000 123.342 215.000 122.611 C 215.000 121.943,215.499 118.533,215.834 116.917 C 216.188 115.204,216.924 112.679,217.340 111.750 C 217.422 111.567,217.674 110.988,217.899 110.464 C 218.774 108.434,221.107 105.500,221.846 105.500 C 221.931 105.500,222.000 105.706,222.000 105.958 M155.230 107.625 C 154.991 108.244,154.715 109.002,154.615 109.310 C 154.285 110.324,154.106 110.210,151.602 107.389 C 150.848 106.538,150.830 106.546,153.624 106.519 L 155.664 106.500 155.230 107.625 M101.352 108.360 C 102.212 109.291,103.083 110.209,103.285 110.401 C 103.607 110.706,103.635 110.834,103.503 111.417 C 103.270 112.453,102.834 115.376,102.831 115.924 C 102.826 116.767,102.779 116.781,99.333 116.908 C 95.748 117.041,95.592 117.089,95.401 118.108 C 95.343 118.417,95.229 118.711,95.148 118.762 C 95.066 118.812,95.000 118.968,95.000 119.109 C 95.000 119.627,93.082 123.138,92.899 122.955 C 92.830 122.885,93.085 120.900,93.321 119.667 C 93.400 119.254,93.551 118.467,93.656 117.917 C 93.762 117.367,93.912 116.729,93.990 116.500 C 94.068 116.271,94.260 115.633,94.416 115.083 C 95.476 111.347,97.197 108.232,98.833 107.090 C 99.662 106.512,99.628 106.495,101.352 108.360 M261.632 115.584 C 261.788 115.768,262.178 116.255,262.497 116.667 C 263.955 118.552,266.292 120.480,267.635 120.907 C 268.082 121.048,268.084 121.110,267.666 121.795 C 266.977 122.926,264.533 124.022,264.091 123.399 C 263.968 123.225,263.315 122.401,262.642 121.568 C 261.968 120.734,261.192 119.763,260.917 119.411 C 260.642 119.058,260.173 118.477,259.875 118.119 C 259.226 117.339,259.234 117.481,259.785 116.622 C 260.034 116.234,260.384 115.626,260.563 115.270 C 260.870 114.663,260.904 114.643,261.118 114.937 C 261.244 115.109,261.475 115.400,261.632 115.584 M282.333 122.071 C 282.333 122.386,282.146 124.317,281.917 126.363 C 281.688 128.409,281.500 130.140,281.500 130.208 C 281.500 130.277,280.150 130.333,278.500 130.333 C 276.850 130.333,275.499 130.277,275.497 130.208 C 275.495 130.140,275.695 128.193,275.941 125.883 L 276.388 121.683 277.069 121.621 C 277.444 121.586,278.781 121.545,280.042 121.529 L 282.333 121.500 282.333 122.071 M149.164 123.208 C 149.158 123.727,148.868 123.917,148.539 123.618 C 148.268 123.373,147.833 123.333,145.445 123.333 C 143.704 123.333,142.667 123.271,142.667 123.167 C 142.667 123.061,143.861 123.000,145.917 123.000 C 148.407 123.000,149.166 123.049,149.164 123.208 M106.787 140.056 C 106.710 140.287,104.294 141.103,103.233 141.257 L 102.417 141.376 103.007 140.896 C 103.332 140.632,104.041 139.978,104.584 139.442 L 105.570 138.467 106.209 139.172 C 106.560 139.559,106.820 139.957,106.787 140.056 " stroke="none" fill="#040404" fill-rule="evenodd"></path></g></svg>