<svg id="svg" version="1.1" xmlns="http://www.w3.org/2000/svg" xmlns:xlink="http://www.w3.org/1999/xlink" width="400" height="400" viewBox="0, 0, 400,400">
    <g id="svgg">
        <path id="path0" d="M191.765 45.665 C 189.689 46.809,185.071 51.816,173.242 65.751 C 171.734 67.528,171.565 67.612,168.359 68.187 C 166.533 68.515,162.166 69.500,158.655 70.375 L 152.271 71.967 144.397 68.814 C 122.341 59.982,122.982 59.960,107.711 70.048 C 101.314 74.274,101.316 74.268,99.194 94.975 L 98.381 102.908 95.186 106.239 C 93.429 108.071,90.517 111.240,88.716 113.281 C 86.915 115.322,85.157 117.290,84.811 117.654 C 84.450 118.032,81.498 119.004,77.930 119.920 C 60.765 124.325,55.047 126.240,53.256 128.184 C 50.206 131.495,44.065 144.832,43.840 148.633 C 43.646 151.894,43.974 152.592,51.950 165.911 L 56.917 174.205 56.033 179.192 C 55.547 181.935,54.927 186.271,54.656 188.828 C 54.080 194.246,55.266 192.391,44.217 205.155 C 32.543 218.642,32.684 218.307,34.180 228.830 C 35.860 240.650,35.730 240.413,46.089 250.439 C 55.866 259.902,54.701 259.079,63.459 262.695 L 70.083 265.430 71.439 267.719 L 72.795 270.008 71.946 277.289 C 69.535 297.945,69.483 300.411,71.395 303.190 C 73.979 306.946,97.576 329.155,101.568 331.589 C 104.220 333.206,109.987 332.205,126.575 327.250 L 132.251 325.555 136.536 327.584 L 140.820 329.613 144.427 335.467 C 148.111 341.445,161.662 355.677,166.340 358.480 C 170.003 360.675,188.087 361.551,190.931 359.671 C 192.536 358.610,200.148 350.157,206.737 342.116 C 210.129 337.977,210.171 337.943,212.401 337.504 C 216.072 336.781,226.251 334.303,227.852 333.743 C 229.290 333.240,229.528 333.300,235.274 335.599 C 256.079 343.925,257.754 344.224,264.357 340.779 C 272.442 336.563,278.457 332.258,279.500 329.944 C 281.199 326.170,282.399 304.256,281.061 301.435 C 278.388 295.804,271.592 287.625,261.827 278.289 C 249.326 266.337,249.583 266.413,242.188 272.467 C 238.342 275.615,238.444 275.575,238.565 273.893 C 239.359 262.783,242.145 232.351,242.391 232.094 C 242.461 232.021,250.855 231.379,261.046 230.668 C 280.077 229.340,280.770 229.235,281.597 227.558 C 282.003 226.736,284.375 204.860,284.375 201.944 C 284.375 200.400,284.149 200.087,279.772 195.570 C 266.467 181.842,261.263 176.172,261.967 176.172 C 265.233 176.172,290.657 174.121,291.470 173.792 C 293.055 173.150,293.232 172.224,294.294 159.010 C 295.200 147.742,295.231 146.626,294.673 145.449 C 293.873 143.764,268.247 118.444,267.033 118.139 C 265.833 117.838,201.572 122.199,200.754 122.637 C 200.417 122.818,199.714 122.884,199.192 122.784 C 198.386 122.630,156.379 125.346,150.000 125.964 L 147.852 126.172 148.828 125.408 C 155.182 120.434,176.627 112.882,191.595 110.346 C 205.531 107.985,212.281 108.142,225.574 111.135 C 237.816 113.890,237.163 114.279,241.020 101.953 C 242.130 98.408,243.157 95.190,243.302 94.803 C 243.518 94.225,244.776 95.256,250.256 100.502 L 256.945 106.906 262.555 109.360 C 284.385 118.911,287.374 121.543,296.258 139.036 C 305.389 157.016,308.020 171.857,305.681 192.188 C 302.686 218.231,295.776 233.586,277.941 253.832 C 267.531 265.649,267.521 264.512,278.127 274.837 C 286.173 282.669,299.453 294.837,300.950 295.751 C 304.583 297.966,308.070 295.362,318.154 282.904 C 320.030 280.587,320.197 280.481,323.230 279.677 C 338.599 275.605,347.647 272.813,349.705 271.508 C 352.786 269.554,360.524 253.658,360.539 249.251 C 360.549 246.630,356.415 238.869,348.406 226.468 C 347.111 224.463,346.992 224.068,347.285 222.757 C 347.732 220.758,349.104 210.998,349.425 207.532 L 349.686 204.712 353.066 200.890 C 367.124 184.992,369.923 180.987,369.920 176.776 C 369.916 171.405,367.914 160.423,366.388 157.400 C 365.699 156.035,349.565 140.198,347.656 139.013 C 346.771 138.463,337.803 134.810,334.322 133.580 C 333.213 133.188,332.598 132.557,331.513 130.699 L 330.124 128.320 330.677 124.023 C 332.605 109.052,333.124 98.966,332.085 96.679 C 330.867 93.997,307.966 72.047,302.181 68.016 C 298.455 65.420,295.842 65.792,276.463 71.681 L 270.310 73.551 266.112 71.586 C 250.849 64.445,251.620 64.304,246.323 75.199 L 242.730 82.589 239.199 75.767 C 233.302 64.378,233.947 65.238,224.348 55.950 C 219.523 51.281,215.116 47.220,214.555 46.924 C 211.480 45.306,194.153 44.349,191.765 45.665 M208.789 49.232 C 214.860 50.164,216.135 51.577,222.770 64.708 C 228.862 76.765,228.831 76.435,224.981 88.483 C 222.236 97.074,222.453 96.933,214.777 95.166 C 203.615 92.596,202.276 92.412,194.922 92.439 C 170.642 92.528,142.600 101.579,126.563 114.503 C 93.837 140.876,79.599 171.013,80.583 211.826 C 81.046 231.043,88.497 249.582,103.453 268.731 C 115.300 283.900,137.854 295.553,163.634 299.824 C 185.839 303.502,223.042 292.700,242.383 276.958 C 244.531 275.209,246.866 273.325,247.571 272.771 L 248.854 271.763 251.010 273.248 C 254.745 275.821,261.670 283.948,263.941 288.426 C 265.403 291.306,264.655 311.685,262.958 315.233 C 261.748 317.763,248.013 326.139,244.531 326.470 C 242.557 326.658,236.015 324.487,223.287 319.420 L 216.300 316.639 212.349 317.712 C 210.176 318.303,205.674 319.401,202.344 320.151 C 194.050 322.022,194.976 321.395,187.762 330.019 C 174.703 345.631,175.797 344.909,166.276 344.213 C 152.544 343.209,152.905 343.523,140.039 321.379 L 137.305 316.673 132.227 314.653 C 129.434 313.542,125.322 311.789,123.089 310.757 L 119.029 308.881 109.221 311.655 C 90.728 316.885,91.399 316.809,87.808 314.091 C 84.086 311.273,74.398 301.766,73.815 300.360 C 73.253 299.003,73.879 290.873,75.582 277.406 C 76.635 269.076,76.669 269.294,73.503 264.128 C 72.230 262.051,70.308 258.594,69.233 256.445 L 67.277 252.539 59.517 249.649 C 42.346 243.254,40.613 242.070,39.126 235.721 C 37.339 228.090,36.648 220.754,37.554 219.017 C 38.103 217.965,47.762 206.402,52.930 200.610 C 57.214 195.809,57.612 195.067,57.980 191.211 C 58.124 189.707,58.790 185.101,59.461 180.975 L 60.680 173.474 56.942 167.303 C 50.185 156.147,47.266 150.718,47.266 149.308 C 47.266 145.483,55.054 130.538,57.602 129.474 C 59.531 128.667,74.506 124.452,80.560 123.010 L 85.742 121.776 88.672 118.627 C 90.283 116.895,93.748 113.256,96.371 110.541 C 101.975 104.739,101.738 105.237,102.521 97.593 C 104.326 79.970,104.945 76.713,106.796 75.087 C 110.510 71.827,122.335 65.421,124.519 65.487 C 125.967 65.531,135.546 69.006,145.777 73.199 C 151.887 75.703,152.609 75.778,157.389 74.403 C 159.277 73.859,163.696 72.824,167.209 72.101 L 173.594 70.788 175.176 69.063 C 176.046 68.115,179.131 64.549,182.031 61.140 C 184.932 57.731,188.735 53.450,190.483 51.627 L 193.661 48.314 199.858 48.563 C 203.266 48.700,207.285 49.001,208.789 49.232 M261.460 73.438 C 270.466 77.454,270.125 77.403,275.922 75.599 C 284.428 72.952,295.835 69.922,297.296 69.922 C 300.154 69.922,315.289 83.164,315.850 86.155 C 316.108 87.529,314.881 102.097,313.817 110.296 C 313.069 116.063,313.114 116.289,315.950 120.992 C 317.214 123.089,319.250 126.684,320.475 128.981 C 322.479 132.741,322.844 133.203,324.143 133.619 C 326.727 134.446,343.908 141.098,345.313 141.815 C 349.448 143.928,351.003 147.398,352.569 158.008 C 353.592 164.941,353.431 165.647,349.782 170.183 C 346.152 174.697,338.565 183.678,335.856 186.668 C 333.205 189.595,332.906 190.336,332.433 195.159 C 332.203 197.499,331.570 202.103,331.026 205.389 C 329.854 212.471,329.619 211.507,334.367 219.105 C 339.938 228.020,343.374 234.160,343.611 235.625 C 343.953 237.733,337.901 251.468,335.216 254.680 C 334.046 256.079,328.770 257.860,314.453 261.690 C 304.358 264.391,305.167 263.956,300.671 269.103 C 298.494 271.594,295.234 275.258,293.427 277.245 L 290.140 280.858 286.201 277.245 C 278.026 269.748,273.828 265.514,273.828 264.767 C 273.828 264.351,276.124 261.440,278.949 258.275 C 301.701 232.790,309.746 211.961,309.761 178.505 C 309.770 160.437,306.325 148.493,296.159 131.340 C 284.641 111.906,275.518 104.168,251.871 93.773 C 248.281 92.194,244.976 90.513,244.528 90.035 L 243.712 89.167 248.292 79.545 C 250.811 74.252,253.031 69.922,253.225 69.922 C 253.419 69.922,257.125 71.504,261.460 73.438 M266.196 121.851 C 266.405 122.190,264.995 145.325,264.755 145.505 C 264.696 145.549,254.629 146.256,242.383 147.076 C 230.137 147.897,219.997 148.671,219.850 148.796 C 219.547 149.055,217.019 178.478,217.278 178.737 C 217.371 178.829,223.760 178.473,231.477 177.945 C 252.002 176.541,256.299 176.326,256.525 176.692 C 256.886 177.275,254.922 200.477,254.501 200.608 C 254.281 200.677,245.358 201.328,234.672 202.055 C 223.986 202.782,215.162 203.458,215.064 203.556 C 214.703 203.917,212.409 234.473,211.114 256.152 C 210.943 259.027,210.698 260.548,210.407 260.550 C 210.161 260.552,206.445 260.813,202.148 261.130 C 197.852 261.448,193.651 261.710,192.814 261.713 L 191.293 261.719 191.562 256.348 C 192.225 243.109,193.822 222.302,196.276 194.922 C 197.018 186.650,197.723 178.564,197.844 176.953 C 197.965 175.342,198.494 169.014,199.020 162.891 C 199.546 156.768,200.241 148.242,200.566 143.945 C 200.890 139.648,201.362 133.804,201.613 130.957 L 202.070 125.781 203.477 125.757 C 204.250 125.743,217.891 124.799,233.789 123.658 C 266.321 121.325,265.886 121.349,266.196 121.851 M198.437 128.418 C 198.437 130.656,197.473 144.497,197.055 148.277 L 196.834 150.265 183.338 151.182 C 174.940 151.752,169.788 152.255,169.700 152.514 C 169.622 152.743,168.942 159.609,168.188 167.773 C 167.434 175.938,166.104 190.000,165.233 199.023 C 163.161 220.488,161.545 239.801,160.701 253.176 L 160.020 263.969 157.647 264.195 C 151.776 264.757,140.976 265.325,140.736 265.085 C 140.071 264.420,142.375 234.544,145.694 200.781 C 146.761 189.932,147.720 180.000,147.826 178.711 C 147.932 177.422,148.495 171.315,149.077 165.140 C 149.660 158.965,150.047 153.823,149.937 153.713 C 149.828 153.604,143.953 153.923,136.881 154.422 C 129.809 154.922,123.866 155.195,123.674 155.030 C 123.469 154.854,123.516 152.179,123.789 148.557 C 124.045 145.161,124.438 139.922,124.663 136.914 C 124.889 133.906,125.188 131.334,125.329 131.197 C 125.470 131.060,129.453 130.739,134.180 130.483 C 138.906 130.226,154.551 129.173,168.945 128.142 C 183.340 127.112,195.864 126.247,196.777 126.220 L 198.438 126.172 198.437 128.418 M129.026 165.545 C 134.009 170.432,139.454 175.745,141.126 177.352 L 144.166 180.273 142.409 197.852 C 137.962 242.350,136.392 265.058,137.632 266.951 C 138.457 268.210,162.332 292.405,163.735 293.404 C 164.930 294.255,182.987 293.498,185.675 292.484 C 187.730 291.709,187.861 291.126,188.696 279.053 C 189.126 272.849,189.603 267.218,189.758 266.540 L 190.039 265.306 195.933 271.618 C 199.175 275.089,204.219 280.496,207.142 283.632 L 212.457 289.335 207.303 290.943 C 180.588 299.277,162.467 298.729,138.223 288.852 C 125.622 283.718,119.716 279.962,115.961 274.694 C 97.302 248.519,92.888 223.054,101.230 189.724 C 104.728 175.750,107.612 169.633,116.344 157.670 L 119.727 153.036 119.846 154.848 C 119.965 156.653,120.000 156.693,129.026 165.545 " stroke="none" fill="#050505" fill-rule="evenodd"></path>
        <path id="path1" d="M190.483 51.627 C 188.735 53.450,184.932 57.731,182.031 61.140 C 179.131 64.549,176.046 68.115,175.176 69.063 L 173.594 70.788 167.209 72.101 C 163.696 72.824,159.277 73.859,157.389 74.403 C 152.609 75.778,151.887 75.703,145.777 73.199 C 135.546 69.006,125.967 65.531,124.519 65.487 C 122.335 65.421,110.510 71.827,106.796 75.087 C 104.945 76.713,104.326 79.970,102.521 97.593 C 101.738 105.237,101.975 104.739,96.371 110.541 C 93.748 113.256,90.283 116.895,88.672 118.627 L 85.742 121.776 80.560 123.010 C 74.506 124.452,59.531 128.667,57.602 129.474 C 55.054 130.538,47.266 145.483,47.266 149.308 C 47.266 150.718,50.185 156.147,56.942 167.303 L 60.680 173.474 59.461 180.975 C 58.790 185.101,58.124 189.707,57.980 191.211 C 57.612 195.067,57.214 195.809,52.930 200.610 C 47.762 206.402,38.103 217.965,37.554 219.017 C 36.648 220.754,37.339 228.090,39.126 235.721 C 40.613 242.070,42.346 243.254,59.517 249.649 L 67.277 252.539 69.233 256.445 C 70.308 258.594,72.230 262.051,73.503 264.128 C 76.669 269.294,76.635 269.076,75.582 277.406 C 73.879 290.873,73.253 299.003,73.815 300.360 C 74.398 301.766,84.086 311.273,87.808 314.091 C 91.399 316.809,90.728 316.885,109.221 311.655 L 119.029 308.881 123.089 310.757 C 125.322 311.789,129.434 313.542,132.227 314.653 L 137.305 316.673 140.039 321.379 C 152.905 343.523,152.544 343.209,166.276 344.213 C 175.797 344.909,174.703 345.631,187.762 330.019 C 194.976 321.395,194.050 322.022,202.344 320.151 C 205.674 319.401,210.176 318.303,212.349 317.712 L 216.300 316.639 223.287 319.420 C 236.015 324.487,242.557 326.658,244.531 326.470 C 248.013 326.139,261.748 317.763,262.958 315.233 C 264.655 311.685,265.403 291.306,263.941 288.426 C 261.670 283.948,254.745 275.821,251.010 273.248 L 248.854 271.763 247.571 272.771 C 246.866 273.325,244.531 275.209,242.383 276.958 C 225.818 290.440,199.542 299.528,174.963 300.276 C 156.692 300.832,131.186 292.267,114.727 280.050 C 103.022 271.361,90.729 252.551,84.015 233.056 C 78.153 216.034,79.539 188.200,87.383 165.430 C 94.864 143.714,120.289 115.247,141.093 105.293 C 157.978 97.215,177.713 92.502,194.922 92.439 C 202.276 92.412,203.615 92.596,214.777 95.166 C 222.453 96.933,222.236 97.074,224.981 88.483 C 228.831 76.435,228.862 76.765,222.770 64.708 C 214.996 49.321,214.770 49.162,199.858 48.563 L 193.661 48.314 190.483 51.627 M248.292 79.545 L 243.712 89.167 244.528 90.035 C 244.976 90.513,248.281 92.194,251.871 93.773 C 275.518 104.168,284.641 111.906,296.159 131.340 C 306.325 148.493,309.770 160.437,309.761 178.505 C 309.746 211.961,301.701 232.790,278.949 258.275 C 276.124 261.440,273.828 264.351,273.828 264.767 C 273.828 265.514,278.026 269.748,286.201 277.245 L 290.140 280.858 293.427 277.245 C 295.234 275.258,298.494 271.594,300.671 269.103 C 305.167 263.956,304.358 264.391,314.453 261.690 C 328.770 257.860,334.046 256.079,335.216 254.680 C 337.901 251.468,343.953 237.733,343.611 235.625 C 343.374 234.160,339.938 228.020,334.367 219.105 C 329.619 211.507,329.854 212.471,331.026 205.389 C 331.570 202.103,332.203 197.499,332.433 195.159 C 332.906 190.336,333.205 189.595,335.856 186.668 C 338.565 183.678,346.152 174.697,349.782 170.183 C 353.431 165.647,353.592 164.941,352.569 158.008 C 351.003 147.398,349.448 143.928,345.313 141.815 C 343.908 141.098,326.727 134.446,324.143 133.619 C 322.844 133.203,322.479 132.741,320.475 128.981 C 319.250 126.684,317.214 123.089,315.950 120.992 C 313.114 116.289,313.069 116.063,313.817 110.296 C 314.881 102.097,316.108 87.529,315.850 86.155 C 315.289 83.164,300.154 69.922,297.296 69.922 C 295.835 69.922,284.428 72.952,275.922 75.599 C 270.125 77.403,270.466 77.454,261.460 73.438 C 257.125 71.504,253.419 69.922,253.225 69.922 C 253.031 69.922,250.811 74.252,248.292 79.545 M233.789 123.658 C 217.891 124.799,204.250 125.743,203.477 125.757 L 202.070 125.781 201.613 130.957 C 201.362 133.804,200.890 139.648,200.566 143.945 C 200.241 148.242,199.546 156.768,199.020 162.891 C 198.494 169.014,197.965 175.342,197.844 176.953 C 197.723 178.564,197.018 186.650,196.276 194.922 C 193.822 222.302,192.225 243.109,191.562 256.348 L 191.293 261.719 192.814 261.713 C 193.651 261.710,197.852 261.448,202.148 261.130 C 206.445 260.813,210.161 260.552,210.407 260.550 C 210.698 260.548,210.943 259.027,211.114 256.152 C 212.409 234.473,214.703 203.917,215.064 203.556 C 215.162 203.458,223.986 202.782,234.672 202.055 C 245.358 201.328,254.281 200.677,254.501 200.608 C 254.922 200.477,256.886 177.275,256.525 176.692 C 256.299 176.326,252.002 176.541,231.477 177.945 C 223.760 178.473,217.371 178.829,217.278 178.737 C 217.019 178.478,219.547 149.055,219.850 148.796 C 219.997 148.671,230.137 147.897,242.383 147.076 C 254.629 146.256,264.696 145.549,264.755 145.505 C 264.995 145.325,266.405 122.190,266.196 121.851 C 265.886 121.349,266.321 121.325,233.789 123.658 M168.945 128.142 C 154.551 129.173,138.906 130.226,134.180 130.483 C 129.453 130.739,125.470 131.060,125.329 131.197 C 125.188 131.334,124.889 133.906,124.663 136.914 C 124.438 139.922,124.045 145.161,123.789 148.557 C 123.516 152.179,123.469 154.854,123.674 155.030 C 123.866 155.195,129.809 154.922,136.881 154.422 C 143.953 153.923,149.828 153.604,149.937 153.713 C 150.047 153.823,149.660 158.965,149.077 165.140 C 148.495 171.315,147.932 177.422,147.826 178.711 C 147.720 180.000,146.761 189.932,145.694 200.781 C 142.375 234.544,140.071 264.420,140.736 265.085 C 140.976 265.325,151.776 264.757,157.647 264.195 L 160.020 263.969 160.701 253.176 C 161.545 239.801,163.161 220.488,165.233 199.023 C 166.104 190.000,167.434 175.938,168.188 167.773 C 168.942 159.609,169.622 152.743,169.700 152.514 C 169.788 152.255,174.940 151.752,183.338 151.182 L 196.834 150.265 197.055 148.277 C 197.473 144.497,198.437 130.656,198.437 128.418 L 198.438 126.172 196.777 126.220 C 195.864 126.247,183.340 127.112,168.945 128.142 " stroke="none" fill="#ca712d" fill-rule="evenodd"></path>
    </g>
</svg>