<?xml version="1.0" encoding="UTF-8" standalone="no"?>
<!DOCTYPE svg PUBLIC "-//W3C//DTD SVG 1.1//EN" "http://www.w3.org/Graphics/SVG/1.1/DTD/svg11.dtd">
<svg width="100%" height="100%" viewBox="0 0 128 128" version="1.1" xmlns="http://www.w3.org/2000/svg" xmlns:xlink="http://www.w3.org/1999/xlink" xml:space="preserve" xmlns:serif="http://www.serif.com/" style="fill-rule:evenodd;clip-rule:evenodd;stroke-linejoin:round;stroke-miterlimit:2;">
    <g transform="matrix(1,0,0,1,-2426.13,-865.437)">
        <g id="Artboard10" transform="matrix(0.925755,0,0,0.925755,183.966,-2.18923)">
            <rect x="2421.99" y="937.209" width="138.266" height="138.266" style="fill:none;"/>
            <clipPath id="_clip1">
                <rect x="2421.99" y="937.209" width="138.266" height="138.266"/>
            </clipPath>
            <g clip-path="url(#_clip1)">
                <g transform="matrix(1.0802,0,0,1.0802,-198.72,-80.4818)">
                    <path d="M2505.41,1054.51L2522.7,1054.51C2513.96,1062.06 2502.58,1066.63 2490.13,1066.63C2477.69,1066.63 2466.3,1062.06 2457.57,1054.51L2474.85,1054.51C2476.77,1060.15 2482.89,1064.29 2490.13,1064.29C2497.38,1064.29 2503.5,1060.15 2505.41,1054.51ZM2485.63,1060C2481.37,1058.5 2478.37,1054.92 2478.37,1050.75C2478.37,1045.22 2483.64,1040.74 2490.13,1040.74C2496.63,1040.74 2501.9,1045.22 2501.9,1050.75C2501.9,1054.92 2498.89,1058.5 2494.63,1060L2494.63,1051.56C2494.63,1046.4 2485.63,1046.46 2485.63,1051.56L2485.63,1060ZM2440.63,1035.19C2441.76,1038.24 2443.16,1041.16 2444.81,1043.92C2444.81,1043.92 2437.27,1048.28 2432.81,1050.85C2431.96,1051.34 2430.95,1051.47 2430,1051.22C2429.05,1050.97 2428.24,1050.35 2427.75,1049.5C2427.39,1048.86 2427,1048.19 2426.63,1047.55C2426.14,1046.7 2426.01,1045.69 2426.26,1044.74C2426.51,1043.79 2427.13,1042.98 2427.98,1042.49C2432.62,1039.82 2440.63,1035.19 2440.63,1035.19ZM2539.63,1035.19C2539.63,1035.19 2547.65,1039.82 2552.28,1042.49C2553.13,1042.98 2553.75,1043.79 2554.01,1044.74C2554.26,1045.69 2554.13,1046.7 2553.64,1047.55C2553.27,1048.19 2552.88,1048.86 2552.51,1049.5C2552.02,1050.35 2551.21,1050.97 2550.26,1051.22C2549.32,1051.47 2548.31,1051.34 2547.46,1050.85C2542.99,1048.28 2535.46,1043.92 2535.46,1043.92C2537.11,1041.16 2538.51,1038.24 2539.63,1035.19ZM2447.57,990.957C2456.34,976.634 2472.13,967.071 2490.13,967.071C2508.14,967.071 2523.93,976.634 2532.7,990.957L2527.18,990.957C2527.67,991.604 2528.14,992.289 2528.56,993.011C2529.14,993.981 2529.62,994.973 2530.02,995.977L2535.39,995.977C2536.82,999.06 2537.95,1002.31 2538.73,1005.7C2539.54,1009.27 2539.97,1012.98 2539.97,1016.79C2539.97,1022.72 2538.93,1028.41 2537.03,1033.68L2537.1,1033.73C2536.01,1036.8 2534.62,1039.73 2532.97,1042.48L2532.87,1042.43C2531.37,1044.93 2529.64,1047.3 2527.74,1049.49L2505.97,1049.49C2505.22,1042.61 2498.41,1037.21 2490.13,1037.21C2481.85,1037.21 2475.04,1042.61 2474.3,1049.49L2452.53,1049.49C2450.62,1047.3 2448.9,1044.93 2447.39,1042.43L2447.3,1042.48C2445.65,1039.73 2444.26,1036.8 2443.16,1033.73L2443.24,1033.68C2441.33,1028.41 2440.3,1022.72 2440.3,1016.79C2440.3,1012.98 2440.72,1009.27 2441.54,1005.7C2442.32,1002.31 2443.44,999.058 2444.88,995.977L2450.25,995.977C2450.64,994.973 2451.13,993.981 2451.7,993.011C2452.13,992.289 2452.6,991.604 2453.09,990.957L2447.57,990.957ZM2502.8,995.977L2477.47,995.977C2478.07,999.348 2477.39,1003.19 2475.33,1006.65C2471.32,1013.42 2463.46,1016.4 2457.69,1013.08C2451.95,1009.76 2450.74,1001.55 2454.74,994.808C2458.74,988.043 2466.61,985.06 2472.38,988.387L2472.38,988.387C2473.54,989.06 2474.52,989.935 2475.31,990.957L2504.96,990.957C2505.74,989.935 2506.72,989.06 2507.89,988.387C2513.65,985.06 2521.52,988.043 2525.53,994.808C2529.53,1001.55 2528.32,1009.76 2522.57,1013.08C2516.81,1016.4 2508.94,1013.42 2504.93,1006.65C2502.88,1003.19 2502.2,999.348 2502.8,995.977ZM2459.45,992.952C2462.75,990.035 2467.22,989.192 2470.69,991.193C2475.17,993.782 2476.28,1000.16 2473.16,1005.42C2470.04,1010.69 2463.87,1012.86 2459.38,1010.27C2456.09,1008.37 2454.61,1004.42 2455.3,1000.37L2461.88,1004.17C2466.05,1006.58 2470.25,999.187 2466.13,996.808L2459.45,992.952ZM2524.96,1000.37C2525.65,1004.42 2524.18,1008.37 2520.89,1010.27C2516.4,1012.86 2510.23,1010.69 2507.11,1005.42C2503.99,1000.16 2505.09,993.782 2509.58,991.193C2513.04,989.192 2517.52,990.035 2520.81,992.952L2514.13,996.808C2510.01,999.187 2514.21,1006.58 2518.38,1004.17L2524.96,1000.37ZM2534.44,988.306C2534.44,988.306 2541.22,984.914 2545.45,982.797C2546.33,982.358 2547.34,982.285 2548.27,982.596C2549.2,982.906 2549.98,983.573 2550.41,984.451C2550.75,985.128 2551.11,985.842 2551.45,986.519C2552.37,988.347 2551.62,990.571 2549.8,991.486C2545.61,993.579 2538.95,996.913 2538.95,996.913C2537.71,993.894 2536.2,991.014 2534.44,988.306ZM2445.85,988.272C2444.09,990.979 2442.57,993.858 2441.33,996.876C2441.33,996.876 2434.72,993.569 2430.56,991.486C2428.73,990.571 2427.99,988.347 2428.91,986.519C2429.24,985.842 2429.6,985.128 2429.94,984.451C2430.86,982.623 2433.08,981.882 2434.91,982.797C2439.12,984.904 2445.85,988.272 2445.85,988.272ZM2494.96,964.412C2493.37,964.267 2491.76,964.193 2490.13,964.193C2488.51,964.193 2486.89,964.267 2485.31,964.412L2485.31,949.336C2485.31,948.354 2485.7,947.412 2486.39,946.718C2487.09,946.024 2488.03,945.634 2489.01,945.634L2491.26,945.634C2492.24,945.634 2493.18,946.024 2493.88,946.718C2494.57,947.412 2494.96,948.354 2494.96,949.336C2494.96,954.806 2494.96,964.412 2494.96,964.412Z" style="fill:#ccc;"/>
                </g>
            </g>
        </g>
    </g>
</svg>
