<?xml version="1.0" encoding="UTF-8" standalone="no"?>
<!DOCTYPE svg PUBLIC "-//W3C//DTD SVG 1.1//EN" "http://www.w3.org/Graphics/SVG/1.1/DTD/svg11.dtd">
<svg width="100%" height="100%" viewBox="0 0 128 128" version="1.1" xmlns="http://www.w3.org/2000/svg" xmlns:xlink="http://www.w3.org/1999/xlink" xml:space="preserve" xmlns:serif="http://www.serif.com/" style="fill-rule:evenodd;clip-rule:evenodd;stroke-linejoin:round;stroke-miterlimit:2;">
    <g transform="matrix(1,0,0,1,-2426.13,-865.437)">
        <g id="Artboard10" transform="matrix(0.925755,0,0,0.925755,183.966,-2.18923)">
            <rect x="2421.99" y="937.209" width="138.266" height="138.266" style="fill:none;"/>
            <clipPath id="_clip1">
                <rect x="2421.99" y="937.209" width="138.266" height="138.266"/>
            </clipPath>
            <g clip-path="url(#_clip1)">
                <g transform="matrix(1.94544,0,0,1.94544,-5264.63,-37.6098)">
                    <path d="M4012.28,566.066C4011.38,569.567 4008.28,572.152 4004.59,572.152C4000.91,572.152 3997.81,569.567 3996.91,566.066L4012.28,566.066ZM3976.37,566.066C3975.47,569.567 3972.37,572.152 3968.68,572.152C3965,572.152 3961.89,569.567 3960.99,566.066L3976.37,566.066ZM4016.95,554.39L4020.14,557.706L4016.05,563.242L3954.85,563.242L3953.29,554.39L4016.95,554.39ZM4022.17,542.687L3951.1,542.687L3952.67,551.539L4021.61,551.539L4018.98,548.245L4022.17,542.687ZM3976.94,521.198C3976.76,521.137 3976.57,521.105 3976.37,521.105C3975.39,521.105 3974.6,521.9 3974.6,522.879C3974.6,523.858 3975.39,524.653 3976.37,524.653C3976.57,524.653 3976.76,524.62 3976.94,524.56L3976.94,526.803C3976.76,526.743 3976.57,526.71 3976.37,526.71C3975.39,526.71 3974.6,527.505 3974.6,528.484C3974.6,529.463 3975.39,530.258 3976.37,530.258C3976.57,530.258 3976.76,530.225 3976.94,530.165L3976.94,532.368C3976.76,532.308 3976.57,532.275 3976.37,532.275C3975.39,532.275 3974.6,533.07 3974.6,534.049C3974.6,535.028 3975.39,535.823 3976.37,535.823C3976.57,535.823 3976.76,535.79 3976.94,535.73L3976.94,539.837L3966.97,539.837C3966.97,538.593 3967.03,537.35 3967.16,536.114C3967.36,534.189 3967.73,532.28 3968.31,530.438C3968.66,529.346 3969.07,528.278 3969.57,527.248C3970.07,526.195 3970.66,525.183 3971.33,524.227C3972.14,523.048 3973.08,521.957 3974.12,520.974C3974.99,520.147 3975.93,519.399 3976.92,518.731L3976.94,518.718L3976.94,521.198ZM3983.25,515.768C3981.96,516.151 3980.64,516.66 3979.35,517.311L3979.35,539.837L4018.6,539.837C4018.6,527.215 4010.41,518.162 3997.51,515.57C3997.56,515.412 3997.58,515.243 3997.57,515.068L3997.54,514.027C3997.51,513.189 3996.83,512.531 3996.01,512.559L3995.98,512.56L3994.81,505.644C3994.61,504.462 3993.51,503.537 3992.35,503.577L3987.69,503.739C3986.53,503.779 3985.49,504.779 3985.37,505.973L3984.66,512.954L3984.62,512.955C3983.81,512.984 3983.17,513.688 3983.2,514.526L3983.23,515.567C3983.23,515.635 3983.24,515.702 3983.25,515.768ZM3956.7,521.35L3954.06,515.283L3955.2,505.431L3952.93,504.752C3952.93,504.752 3954.45,502.893 3955.39,501.752C3955.83,501.218 3956.52,500.976 3957.18,501.122C3957.79,501.256 3958.55,501.423 3959.17,501.558C3959.86,501.71 3960.4,502.25 3960.57,502.951C3960.97,504.578 3961.65,507.362 3961.65,507.362L3959.15,506.614L3957.11,514.812L3959.04,521.692L3962.43,522.185C3963.35,522.319 3964.05,523.366 3964.05,524.614L3964.05,539.837L3954.99,539.837L3954.61,521.046L3956.7,521.35ZM3994.76,512.603L3985.88,512.912L3986.57,506.102C3986.63,505.506 3987.15,505.004 3987.73,504.984C3987.73,504.984 3992.39,504.822 3992.39,504.822C3992.97,504.802 3993.52,505.266 3993.62,505.857L3994.76,512.603Z" style="fill:#ccc;"/>
                </g>
            </g>
        </g>
    </g>
</svg>
