<?xml version="1.0" encoding="UTF-8" standalone="no"?>
<!DOCTYPE svg PUBLIC "-//W3C//DTD SVG 1.1//EN" "http://www.w3.org/Graphics/SVG/1.1/DTD/svg11.dtd">
<svg width="100%" height="100%" viewBox="0 0 128 128" version="1.1" xmlns="http://www.w3.org/2000/svg" xmlns:xlink="http://www.w3.org/1999/xlink" xml:space="preserve" xmlns:serif="http://www.serif.com/" style="fill-rule:evenodd;clip-rule:evenodd;stroke-linejoin:round;stroke-miterlimit:2;">
    <g transform="matrix(1,0,0,1,-2426.13,-865.437)">
        <g id="Artboard10" transform="matrix(0.925755,0,0,0.925755,183.966,-2.18923)">
            <rect x="2421.99" y="937.209" width="138.266" height="138.266" style="fill:none;"/>
            <clipPath id="_clip1">
                <rect x="2421.99" y="937.209" width="138.266" height="138.266"/>
            </clipPath>
            <g clip-path="url(#_clip1)">
                <g transform="matrix(1.0802,0,0,1.0802,-198.72,2.3648)">
                    <path d="M2451.55,980.489L2453.84,978.2L2455.2,975.86C2456.05,974.409 2457.08,973.074 2458.27,971.886L2460.23,969.927C2460.72,970.568 2461.17,971.239 2461.58,971.938C2463.07,974.482 2465.73,974.801 2465.73,974.801L2468.25,979.11L2473.24,984.104L2479.91,977.441L2479.91,977.29C2483.2,977.993 2486.62,978.363 2490.13,978.363C2493.64,978.363 2497.06,977.993 2500.36,977.29L2500.36,977.441L2507.02,984.104L2517.59,973.535C2517.59,973.535 2518.2,972.77 2518.69,971.938C2519.1,971.239 2519.55,970.568 2520.03,969.927L2521.99,971.886C2523.18,973.074 2524.21,974.409 2525.06,975.86C2525.06,975.86 2526.43,978.2 2526.43,978.2L2528.72,980.489C2517.99,988.614 2504.62,993.437 2490.13,993.437C2475.65,993.437 2462.28,988.614 2451.55,980.489ZM2524.39,959.217L2525.6,958C2527.05,956.55 2528.68,955.293 2530.45,954.259C2530.87,954.012 2531.17,953.837 2531.17,953.837L2538.68,946.325C2538.68,946.325 2537.52,945.162 2536.35,943.986L2531.51,943.986C2529.31,946.182 2526.42,949.079 2526.42,949.079C2526.42,949.079 2526.24,949.379 2525.99,949.801C2525.48,950.679 2524.91,951.522 2524.3,952.326L2454.39,882.418C2448.14,876.174 2440.09,872.063 2431.37,870.67L2431.37,870.671C2432.76,879.391 2436.87,887.447 2443.11,893.691L2513.02,963.599C2512.22,964.218 2511.37,964.786 2510.5,965.299C2510.08,965.545 2509.78,965.721 2509.78,965.721C2509.78,965.721 2506.88,968.618 2504.68,970.814L2504.68,975.651C2505.86,976.827 2507.02,977.99 2507.02,977.99L2514.53,970.478C2514.53,970.478 2514.71,970.178 2514.95,969.756C2515.99,967.986 2517.25,966.356 2518.7,964.906L2519.91,963.69L2525.05,968.829C2526.5,970.278 2527.76,971.908 2528.79,973.678C2529.37,974.66 2529.88,975.537 2529.88,975.537L2537.28,982.933L2537.28,988.201C2537.28,988.203 2537.28,988.204 2537.28,988.204C2537.32,988.204 2537.96,988.204 2538.93,988.204C2541.57,988.204 2544.11,987.153 2545.98,985.283C2547.85,983.413 2548.9,980.877 2548.9,978.232C2548.9,978.232 2548.9,978.231 2548.9,978.231C2548.9,977.319 2548.16,976.58 2547.25,976.58C2545.7,976.58 2543.63,976.58 2543.63,976.58L2536.23,969.183C2536.23,969.183 2535.36,968.671 2534.37,968.097C2532.6,967.063 2530.97,965.805 2529.52,964.355L2524.39,959.217ZM2474.03,934.269L2485.3,945.542L2467.24,963.599C2468.05,964.218 2468.89,964.786 2469.77,965.299C2470.19,965.545 2470.49,965.721 2470.49,965.721C2470.49,965.721 2473.39,968.618 2475.58,970.814L2475.58,975.651C2474.41,976.827 2473.24,977.99 2473.24,977.99L2465.73,970.478C2465.73,970.478 2465.56,970.178 2465.31,969.756C2464.28,967.986 2463.02,966.356 2461.57,964.906L2460.35,963.69L2455.21,968.829C2453.76,970.278 2452.51,971.908 2451.47,973.678C2450.9,974.66 2450.39,975.537 2450.39,975.537L2442.99,982.933L2442.99,988.201C2442.99,988.203 2442.99,988.204 2442.99,988.204C2442.95,988.204 2442.3,988.204 2441.34,988.204C2438.69,988.204 2436.16,987.153 2434.29,985.283C2432.42,983.413 2431.37,980.877 2431.37,978.232C2431.37,978.232 2431.37,978.231 2431.37,978.231C2431.37,977.319 2432.11,976.58 2433.02,976.58C2434.56,976.58 2436.64,976.58 2436.64,976.58L2444.03,969.183C2444.03,969.183 2444.91,968.671 2445.89,968.097C2447.66,967.063 2449.29,965.805 2450.74,964.355L2455.88,959.217L2454.66,958C2453.21,956.55 2451.58,955.293 2449.81,954.259C2449.39,954.012 2449.09,953.837 2449.09,953.837C2449.09,953.837 2441.58,946.325 2441.58,946.325C2441.58,946.325 2442.74,945.162 2443.92,943.986L2448.76,943.986C2450.95,946.182 2453.85,949.079 2453.85,949.079C2453.85,949.079 2454.03,949.379 2454.27,949.801C2454.78,950.679 2455.35,951.522 2455.97,952.326L2474.03,934.269ZM2543.12,893.551C2550.07,903.788 2554.13,916.142 2554.13,929.437C2554.13,943.923 2549.31,957.291 2541.18,968.021L2538.89,965.732L2536.55,964.365C2535.11,963.517 2533.77,962.486 2532.58,961.299L2530.62,959.34C2531.26,958.849 2531.93,958.399 2532.63,957.991C2533.01,957.769 2533.35,957.574 2533.35,957.574L2535.48,955.642L2544.8,946.325L2538.14,939.663L2537.99,939.663C2538.69,936.367 2539.06,932.945 2539.06,929.437C2539.06,920.391 2536.6,911.915 2532.31,904.645L2540.21,896.748C2541.23,895.725 2542.2,894.658 2543.12,893.551ZM2437.15,893.552C2438.06,894.658 2439.03,895.725 2440.06,896.748L2447.95,904.645C2443.67,911.915 2441.21,920.391 2441.21,929.437C2441.21,932.945 2441.58,936.367 2442.28,939.663L2442.13,939.663L2435.47,946.325L2446.03,956.894C2446.03,956.894 2447.25,957.769 2447.63,957.991C2448.33,958.399 2449,958.849 2449.64,959.34L2447.68,961.298C2446.5,962.486 2445.16,963.517 2443.71,964.364C2443.71,964.365 2441.37,965.732 2441.37,965.732L2439.08,968.021C2430.96,957.291 2426.13,943.923 2426.13,929.437C2426.13,916.142 2430.2,903.788 2437.15,893.552ZM2476.06,965.174L2473.92,963.036L2490.13,946.824L2506.35,963.036L2504.21,965.174C2499.85,966.894 2495.1,967.839 2490.13,967.839C2485.16,967.839 2480.42,966.894 2476.06,965.174ZM2524.55,912.403C2527.1,917.536 2528.53,923.32 2528.53,929.437C2528.53,934.405 2527.59,939.154 2525.87,943.512L2523.73,945.649L2507.52,929.437L2524.55,912.403ZM2455.71,912.403L2472.74,929.437L2456.53,945.649L2454.4,943.512C2452.68,939.154 2451.73,934.405 2451.73,929.437C2451.73,923.32 2453.16,917.536 2455.71,912.403ZM2494.96,913.332L2525.88,882.418C2532.12,876.174 2540.18,872.063 2548.9,870.67L2548.9,870.671C2547.51,879.391 2543.4,887.447 2537.15,893.691L2506.24,924.606L2494.96,913.332ZM2473.1,895.016C2478.23,892.468 2484.02,891.035 2490.13,891.035C2496.25,891.035 2502.03,892.468 2507.17,895.016L2490.13,912.05L2473.1,895.016ZM2454.25,876.451C2464.48,869.5 2476.84,865.437 2490.13,865.437C2503.43,865.437 2515.8,869.504 2526.03,876.46C2524.92,877.374 2523.85,878.342 2522.82,879.361L2514.92,887.258C2507.66,882.972 2499.18,880.511 2490.13,880.511C2481.09,880.511 2472.61,882.972 2465.34,887.258L2457.44,879.361C2456.42,878.338 2455.35,877.367 2454.25,876.451Z" style="fill:#ccc;"/>
                </g>
            </g>
        </g>
    </g>
</svg>
