<?xml version="1.0" encoding="UTF-8" standalone="no"?>
<!-- Created with Inkscape (http://www.inkscape.org/) -->

<svg
   xmlns:dc="http://purl.org/dc/elements/1.1/"
   xmlns:cc="http://creativecommons.org/ns#"
   xmlns:rdf="http://www.w3.org/1999/02/22-rdf-syntax-ns#"
   xmlns:svg="http://www.w3.org/2000/svg"
   xmlns="http://www.w3.org/2000/svg"
   xmlns:sodipodi="http://sodipodi.sourceforge.net/DTD/sodipodi-0.dtd"
   xmlns:inkscape="http://www.inkscape.org/namespaces/inkscape"
   width="434.875"
   height="434.93301"
   viewBox="0 0 115.06084 115.07583"
   version="1.1"
   id="svg8"
   inkscape:version="0.92.4 (5da689c313, 2019-01-14)"
   sodipodi:docname="githublabel.svg">
  <defs
     id="defs2">
    <inkscape:path-effect
       effect="bspline"
       id="path-effect31"
       is_visible="true"
       weight="33.333333"
       steps="2"
       helper_size="0"
       apply_no_weight="true"
       apply_with_weight="true"
       only_selected="false" />
  </defs>
  <sodipodi:namedview
     id="base"
     pagecolor="#ffffff"
     bordercolor="#666666"
     borderopacity="1.0"
     inkscape:pageopacity="0.0"
     inkscape:pageshadow="2"
     inkscape:zoom="0.5"
     inkscape:cx="537.013"
     inkscape:cy="214.92654"
     inkscape:document-units="mm"
     inkscape:current-layer="layer1"
     showgrid="false"
     units="px"
     inkscape:window-width="1366"
     inkscape:window-height="705"
     inkscape:window-x="-8"
     inkscape:window-y="-8"
     inkscape:window-maximized="1" />
  <metadata
     id="metadata5">
    <rdf:RDF>
      <cc:Work
         rdf:about="">
        <dc:format>image/svg+xml</dc:format>
        <dc:type
           rdf:resource="http://purl.org/dc/dcmitype/StillImage" />
        <dc:title />
      </cc:Work>
    </rdf:RDF>
  </metadata>
  <g
     inkscape:label="Camada 1"
     inkscape:groupmode="layer"
     id="layer1"
     transform="translate(0,-181.92431)">
    <path
       style="fill:#000000;stroke:none;stroke-width:0.26458415px;stroke-linecap:butt;stroke-linejoin:miter;stroke-opacity:1"
       d="M 0,181.92605 115.06017,297.00029 V 181.92565 Z"
       id="path47"
       inkscape:connector-curvature="0"
       sodipodi:nodetypes="cccc" />
    <path
       style="opacity:1;fill:#f2f2f2;fill-opacity:1;stroke:none;stroke-width:0.12114333;stroke-opacity:1"
       d="m 68.947488,238.33623 c -0.06047,-0.13852 -0.08756,-0.43907 -0.06023,-0.66787 0.04856,-0.40662 0.116487,-0.48286 3.013596,-3.38245 1.999858,-1.81233 3.913568,-3.84003 4.284402,-6.34818 0.412196,0.2669 0.823798,0.56596 1.165736,0.81493 5.4452,3.96888 11.011744,3.29622 15.821063,-1.91181 1.6732,-1.81188 2.393341,-3.24368 2.677544,-5.3233 l 0.138012,-1.00996 c 2.034298,-1.326 3.423573,-2.94187 4.510299,-4.9294 -1.911203,-1.90096 -4.848705,-2.72622 -6.856948,-3.22297 -1.105923,-1.85211 -2.539595,-3.61336 -3.816396,-4.90355 -1.807857,-1.78706 -3.145811,-2.73971 -5.051954,-3.98037 -1.007241,-2.95473 -1.240067,-4.85844 -3.241591,-6.85998 -2.02233,1.11454 -3.972631,2.85492 -4.906304,4.53147 -2.739075,0.33016 -5.123645,1.71092 -6.657442,3.21552 -1.20578,1.2032 -2.502671,2.87153 -3.077611,3.95909 -1.405381,2.65844 -1.465767,5.69977 -0.171229,8.62456 0.73497,1.44636 1.556172,2.78935 2.520587,4.05893 -1.109913,0.10398 -2.218699,0.58117 -3.035,1.09463 -0.240739,0.15375 -0.389265,0.12517 -0.982491,-0.18908 -1.985258,-1.05166 -2.928914,-2.42765 -3.017598,-4.4001 -0.02187,-0.48621 0.04544,-1.23621 0.149583,-1.66664 0.44954,-1.85818 0.06317,-3.76786 -0.972087,-4.80448 -1.133134,-1.13442 -1.655454,-0.59576 -1.287787,1.32804 0.215229,1.12613 0.08586,2.09446 -0.512063,3.83257 -0.712439,2.07102 -0.628961,3.37153 0.331248,5.16047 1.011361,1.30891 2.100204,2.58948 3.512086,3.43811 -1.216386,1.18152 -2.432769,2.36304 -3.649153,3.54456 l -0.446927,-0.0338 c -0.649465,-0.0491 -1.022606,-0.50057 -1.654921,-1.93591 -2.226692,-5.05454 -2.533172,-10.73202 -1.318318,-15.62187 1.753681,-6.66997 5.38673,-11.63906 11.011184,-15.20542 6.281484,-3.91493 13.884718,-5.05815 21.556917,-2.44876 6.92373,2.51402 12.418485,7.91689 14.952335,14.70232 3.69988,8.93684 1.13926,19.6897 -5.608349,26.53939 -6.56286,6.65015 -18.760421,10.24222 -29.320193,4.00131 z"
       id="path21"
       inkscape:connector-curvature="0"
       sodipodi:nodetypes="cccccccccccccccccccccccccccccscccccc" />
  </g>
</svg>
