<?xml version="1.0" encoding="UTF-8" standalone="no"?>
<!DOCTYPE svg PUBLIC "-//W3C//DTD SVG 1.1//EN" "http://www.w3.org/Graphics/SVG/1.1/DTD/svg11.dtd">
<svg width="100%" height="100%" viewBox="0 0 128 128" version="1.1" xmlns="http://www.w3.org/2000/svg" xmlns:xlink="http://www.w3.org/1999/xlink" xml:space="preserve" xmlns:serif="http://www.serif.com/" style="fill-rule:evenodd;clip-rule:evenodd;stroke-linejoin:round;stroke-miterlimit:2;">
    <g transform="matrix(1,0,0,1,-2426.13,-865.437)">
        <g id="Artboard10" transform="matrix(0.925755,0,0,0.925755,183.966,-2.18923)">
            <rect x="2421.99" y="937.209" width="138.266" height="138.266" style="fill:none;"/>
            <clipPath id="_clip1">
                <rect x="2421.99" y="937.209" width="138.266" height="138.266"/>
            </clipPath>
            <g clip-path="url(#_clip1)">
                <g transform="matrix(1.81689,0,0,1.81689,-3182.91,36.6969)">
                    <path d="M3099.51,547.356C3098.16,535.789 3092.94,524.221 3085.12,512.652C3095.07,517.545 3104.39,523.144 3112.64,529.908L3122.93,495.633L3133.23,529.908C3141.48,523.144 3150.79,517.545 3160.75,512.652C3152.92,524.221 3147.7,535.789 3146.36,547.356C3155.26,549.854 3160.98,553.738 3160.98,558.098C3160.98,565.623 3143.93,571.733 3122.93,571.733C3101.94,571.733 3084.89,565.623 3084.89,558.098C3084.89,553.738 3090.61,549.854 3099.51,547.356ZM3099.56,547.821C3099.73,549.406 3099.83,550.991 3099.85,552.576C3099.85,555.637 3111.39,559.195 3122.93,559.195C3134.47,559.195 3146.02,555.637 3146.02,552.576C3146.04,550.991 3146.14,549.406 3146.31,547.821C3149.61,549.494 3151.55,551.536 3151.55,553.739C3151.55,559.4 3138.73,563.996 3122.93,563.996C3107.14,563.996 3094.32,559.4 3094.32,553.739C3094.32,551.536 3096.26,549.494 3099.56,547.821ZM3122.93,535.257C3125.4,535.257 3127.4,538.866 3127.4,543.313C3127.4,547.759 3125.4,551.369 3122.93,551.369C3120.47,551.369 3118.47,547.759 3118.47,543.313C3118.47,538.866 3120.47,535.257 3122.93,535.257ZM3107.56,537.129C3110.02,537.129 3112.48,539.9 3113.03,543.313C3113.59,546.725 3112.04,549.496 3109.58,549.496C3107.11,549.496 3104.66,546.725 3104.1,543.313C3103.54,539.9 3105.09,537.129 3107.56,537.129ZM3138.31,537.129C3135.85,537.129 3133.39,539.9 3132.83,543.313C3132.28,546.725 3133.83,549.496 3136.29,549.496C3138.76,549.496 3141.21,546.725 3141.77,543.313C3142.32,539.9 3140.78,537.129 3138.31,537.129Z" style="fill:white;"/>
                </g>
            </g>
        </g>
    </g>
</svg>
