<?xml version="1.0" encoding="UTF-8" standalone="no"?>
<!DOCTYPE svg PUBLIC "-//W3C//DTD SVG 1.1//EN" "http://www.w3.org/Graphics/SVG/1.1/DTD/svg11.dtd">
<svg width="100%" height="100%" viewBox="0 0 128 128" version="1.1" xmlns="http://www.w3.org/2000/svg" xmlns:xlink="http://www.w3.org/1999/xlink" xml:space="preserve" xmlns:serif="http://www.serif.com/" style="fill-rule:evenodd;clip-rule:evenodd;stroke-linejoin:round;stroke-miterlimit:2;">
    <g transform="matrix(1,0,0,1,-2426.13,-865.437)">
        <g id="Artboard10" transform="matrix(0.925755,0,0,0.925755,183.966,-2.18923)">
            <rect x="2421.99" y="937.209" width="138.266" height="138.266" style="fill:none;"/>
            <clipPath id="_clip1">
                <rect x="2421.99" y="937.209" width="138.266" height="138.266"/>
            </clipPath>
            <g clip-path="url(#_clip1)">
                <g transform="matrix(1.0802,0,0,1.0802,-198.72,-80.4818)">
                    <path d="M2524.72,975.482L2540.24,1002.36C2540.48,1002.77 2540.34,1003.31 2539.92,1003.55L2517.35,1016.58C2516.94,1016.82 2516.41,1016.67 2516.17,1016.26L2500.65,989.379L2436.91,1026.18L2455.08,1057.64C2456.1,1059.41 2460.84,1064.32 2462.61,1063.31C2477.34,1054.8 2538.68,1019.39 2553.41,1010.88C2555.17,1009.86 2553.29,1003.3 2552.27,1001.53L2534.1,970.067L2524.72,975.482ZM2434.38,1049.37L2451.09,1057.85L2436.54,1054.63L2434.38,1049.37ZM2429.04,1019.67L2449.53,1055.16L2428.13,1042.72L2429.04,1019.67ZM2497.82,984.467L2494.38,978.521C2494.14,978.107 2494.28,977.576 2494.7,977.337L2517.27,964.306C2517.68,964.067 2518.21,964.209 2518.45,964.624L2521.89,970.569L2531.26,965.154L2525.18,954.621C2524.17,952.858 2519.42,947.942 2517.66,948.96C2502.93,957.467 2441.59,992.878 2426.86,1001.38C2425.09,1002.4 2426.98,1008.97 2428,1010.73L2434.08,1021.26L2497.82,984.467ZM2517.15,1003.79C2515.37,1004.82 2514.76,1007.1 2515.79,1008.89C2516.82,1010.67 2519.1,1011.28 2520.88,1010.25C2522.67,1009.22 2523.28,1006.94 2522.25,1005.15C2521.22,1003.37 2518.94,1002.76 2517.15,1003.79ZM2517.57,1004.5C2518.95,1003.7 2520.73,1004.18 2521.53,1005.57C2522.34,1006.96 2521.86,1008.74 2520.47,1009.54C2519.08,1010.34 2517.3,1009.86 2516.5,1008.47C2515.7,1007.08 2516.18,1005.31 2517.57,1004.5ZM2528.95,996.977C2530.73,995.948 2533.02,996.56 2534.05,998.343C2535.08,1000.13 2534.47,1002.41 2532.68,1003.44C2530.9,1004.47 2528.61,1003.86 2527.59,1002.08C2526.55,1000.29 2527.17,998.007 2528.95,996.977ZM2514.06,995.588L2511.6,997.01L2514.45,1001.96L2516.92,1000.54L2514.06,995.588ZM2521.97,991.024L2519.5,992.446L2522.36,997.397L2524.82,995.975L2521.97,991.024ZM2525.86,988.777L2523.39,990.199L2526.25,995.15L2528.72,993.728L2525.86,988.777ZM2506.39,980.319L2501.07,983.393L2503.18,987.051L2508.51,983.977L2506.39,980.319ZM2545.61,983.685L2528.72,954.433L2551.92,966.242L2545.61,983.685ZM2460.14,977.091L2453.25,981.072L2454.69,983.56L2461.58,979.579L2460.14,977.091ZM2513.1,976.449L2507.3,979.794L2509.41,983.452L2515.21,980.107L2513.1,976.449ZM2519.33,972.85L2514.01,975.924L2516.12,979.582L2521.44,976.508L2519.33,972.85ZM2451.15,970.482C2449.89,967.669 2450.96,964.355 2453.63,962.813C2458.49,960.011 2466.01,955.664 2470.87,952.861C2473.54,951.319 2476.94,952.049 2478.75,954.551C2481.14,957.865 2484,961.84 2484,961.84L2481.48,963.296C2481.48,963.296 2479.68,960.793 2477.94,958.381C2476.13,955.879 2472.73,955.149 2470.06,956.691C2466.31,958.853 2461.1,961.865 2457.35,964.027C2454.68,965.569 2453.61,968.883 2454.88,971.696C2456.1,974.408 2457.36,977.223 2457.36,977.223L2454.84,978.679C2454.84,978.679 2452.83,974.21 2451.15,970.482ZM2486.87,961.661L2479.98,965.642L2481.41,968.13L2488.31,964.149L2486.87,961.661Z" style="fill:#ccc;"/>
                </g>
            </g>
        </g>
    </g>
</svg>
