<?xml version="1.0" encoding="UTF-8" standalone="no"?>
<!-- Created with Inkscape (http://www.inkscape.org/) -->

<svg
   xmlns:dc="http://purl.org/dc/elements/1.1/"
   xmlns:cc="http://creativecommons.org/ns#"
   xmlns:rdf="http://www.w3.org/1999/02/22-rdf-syntax-ns#"
   xmlns:svg="http://www.w3.org/2000/svg"
   xmlns="http://www.w3.org/2000/svg"
   xmlns:xlink="http://www.w3.org/1999/xlink"
   xmlns:sodipodi="http://sodipodi.sourceforge.net/DTD/sodipodi-0.dtd"
   xmlns:inkscape="http://www.inkscape.org/namespaces/inkscape"
   width="351"
   height="351"
   viewBox="0 0 92.868782 92.868753"
   version="1.1"
   id="svg8"
   inkscape:version="0.92.4 (5da689c313, 2019-01-14)"
   sodipodi:docname="seal_vote_on_steam_workshop.svg">
  <defs
     id="defs2">
    <inkscape:path-effect
       effect="fill_between_many"
       linkedpaths="#rect1750,0"
       allow_transforms="false"
       id="path-effect1752"
       is_visible="true" />
    <inkscape:path-effect
       effect="fill_between_many"
       linkedpaths="#text856,0"
       allow_transforms="false"
       id="path-effect1178"
       is_visible="true" />
    <linearGradient
       inkscape:collect="always"
       id="linearGradient1154">
      <stop
         style="stop-color:#1385b6;stop-opacity:1"
         offset="0"
         id="stop1150" />
      <stop
         style="stop-color:#101d2f;stop-opacity:1"
         offset="1"
         id="stop1152" />
    </linearGradient>
    <linearGradient
       inkscape:collect="always"
       xlink:href="#linearGradient1154"
       id="linearGradient1156"
       x1="173.67708"
       y1="284.05518"
       x2="151.02071"
       y2="199.50046"
       gradientUnits="userSpaceOnUse"
       gradientTransform="translate(-115.88961,6.3581823)" />
    <linearGradient
       inkscape:collect="always"
       id="linearGradient1162">
      <stop
         style="stop-color:#f2f2f2;stop-opacity:1;"
         offset="0"
         id="stop1158" />
      <stop
         style="stop-color:#999999;stop-opacity:1"
         offset="1"
         id="stop1160" />
    </linearGradient>
    <linearGradient
       inkscape:collect="always"
       xlink:href="#linearGradient1162"
       id="linearGradient54"
       x1="93.359184"
       y1="285.04691"
       x2="93.359184"
       y2="243.3633"
       gradientUnits="userSpaceOnUse"
       gradientTransform="translate(-118.03504,-21.261866)" />
    <filter
       inkscape:collect="always"
       style="color-interpolation-filters:sRGB"
       id="filter908"
       x="-0.06"
       width="1.12"
       y="-0.06"
       height="1.12">
      <feGaussianBlur
         inkscape:collect="always"
         stdDeviation="2.0672292"
         id="feGaussianBlur910" />
    </filter>
  </defs>
  <sodipodi:namedview
     id="base"
     pagecolor="#ffffff"
     bordercolor="#666666"
     borderopacity="1.0"
     inkscape:pageopacity="0.0"
     inkscape:pageshadow="2"
     inkscape:zoom="1.2374369"
     inkscape:cx="361.85495"
     inkscape:cy="209.10841"
     inkscape:document-units="mm"
     inkscape:current-layer="layer1"
     showgrid="false"
     units="px"
     inkscape:window-width="1366"
     inkscape:window-height="705"
     inkscape:window-x="-8"
     inkscape:window-y="-8"
     inkscape:window-maximized="1" />
  <metadata
     id="metadata5">
    <rdf:RDF>
      <cc:Work
         rdf:about="">
        <dc:format>image/svg+xml</dc:format>
        <dc:type
           rdf:resource="http://purl.org/dc/dcmitype/StillImage" />
        <dc:title />
      </cc:Work>
    </rdf:RDF>
  </metadata>
  <g
     inkscape:label="Camada 1"
     inkscape:groupmode="layer"
     id="layer1"
     transform="translate(0,-204.13124)">
    <path
       sodipodi:type="star"
       style="opacity:0.55;fill:#000000;fill-opacity:1;stroke:none;stroke-width:0.2752597;stroke-opacity:1;filter:url(#filter908)"
       id="path852-6"
       sodipodi:sides="25"
       sodipodi:cx="46.22419"
       sodipodi:cy="250.61226"
       sodipodi:r1="41.446781"
       sodipodi:r2="35.229763"
       sodipodi:arg1="0.78539816"
       sodipodi:arg2="0.91106187"
       inkscape:flatsided="false"
       inkscape:rounded="0"
       inkscape:randomized="0"
       d="m 75.53149,279.91956 -7.71473,-1.47033 -0.494442,7.83802 -7.106702,-3.34271 -2.428143,7.4688 -6.052134,-5.00505 -4.209274,6.6303 -4.617289,-6.35292 -5.725921,5.3752 -2.892322,-7.3016 -6.882788,3.78234 -0.985619,-7.7915 -7.607184,1.95184 0.983013,-7.79183 -7.853593,-0.001 2.889879,-7.30257 -7.6065305,-1.95438 4.6151625,-6.35447 -6.8815221,-3.78464 6.0504591,-5.00708 -5.7241228,-5.37712 7.1055838,-3.34508 -4.2070564,-6.63171 7.7142374,-1.47291 -2.425644,-7.46962 7.838177,0.49182 -0.49182,-7.83817 7.469616,2.42564 1.472907,-7.71424 6.631711,4.20706 3.345086,-7.10558 5.377111,5.72412 5.00708,-6.05046 3.784648,6.88152 6.354462,-4.61516 1.954381,7.60653 7.302569,-2.88988 0.0013,7.85359 7.791829,-0.98301 -1.951837,7.60718 7.7915,0.98562 -3.782346,6.88279 7.301602,2.89232 -5.375196,5.72593 6.352917,4.61728 -6.630303,4.20928 5.005056,6.05213 -7.468804,2.42815 3.342708,7.1067 -7.838012,0.49444 z"
       inkscape:transform-center-x="-0.081743017"
       inkscape:transform-center-y="0.081746773" />
    <path
       sodipodi:type="star"
       style="fill:url(#linearGradient1156);fill-opacity:1;stroke:none;stroke-width:0.2752597;stroke-opacity:1"
       id="path852"
       sodipodi:sides="25"
       sodipodi:cx="46.224182"
       sodipodi:cy="250.61226"
       sodipodi:r1="41.446777"
       sodipodi:r2="35.229759"
       sodipodi:arg1="0.78539816"
       sodipodi:arg2="0.91106187"
       inkscape:flatsided="false"
       inkscape:rounded="0"
       inkscape:randomized="0"
       d="m 75.53148,279.91956 -7.71473,-1.47033 -0.494442,7.83801 -7.106701,-3.34271 -2.428142,7.46881 -6.052134,-5.00506 -4.209274,6.6303 -4.617288,-6.35291 -5.725921,5.37519 -2.892321,-7.3016 -6.882788,3.78235 -0.985619,-7.7915 -7.607183,1.95184 0.983013,-7.79183 -7.853592,-0.001 2.889879,-7.30257 -7.6065306,-1.95438 4.6151636,-6.35446 -6.8815229,-3.78464 6.0504599,-5.00708 -5.7241236,-5.37712 7.1055836,-3.34508 -4.2070566,-6.63171 7.7142376,-1.47291 -2.425645,-7.46961 7.838177,0.49182 -0.49182,-7.83818 7.469616,2.42564 1.472906,-7.71423 6.631711,4.20705 3.345085,-7.10558 5.377111,5.72412 5.007079,-6.05046 3.784648,6.88153 6.354461,-4.61517 1.954381,7.60653 7.302569,-2.88988 0.0013,7.8536 7.791829,-0.98302 -1.951837,7.60719 7.791499,0.98562 -3.782346,6.88278 7.301602,2.89232 -5.375197,5.72593 6.352918,4.61728 -6.630303,4.20928 5.005056,6.05213 -7.468804,2.42814 3.342708,7.10671 -7.838012,0.49444 z"
       inkscape:transform-center-x="-0.081743017"
       inkscape:transform-center-y="0.081746773" />
    <ellipse
       style="opacity:1;fill:none;fill-opacity:1;stroke:#ffffff;stroke-width:1.24202418;stroke-miterlimit:4;stroke-dasharray:none;stroke-opacity:1;paint-order:normal"
       id="path1639"
       cx="25.653345"
       cy="259.1716"
       rx="5.4982352"
       ry="5.4978595" />
    <path
       style="display:inline;opacity:1;fill:#ffffff;fill-opacity:1;stroke:none;stroke-width:0.05079046;stroke-opacity:1"
       d="m 48.284048,274.8909 c -2.31177,-0.35481 -4.25594,-2.00576 -4.92994,-4.18639 -0.0734,-0.23745 -0.15065,-0.46601 -0.17167,-0.50791 -0.0211,-0.0418 -1.87587,-0.83418 -4.12186,-1.76063 -2.246,-0.92644 -4.14275,-1.71748 -4.21502,-1.75785 -0.11008,-0.0615 -0.15705,-0.16715 -0.28986,-0.65191 -0.30333,-1.1073 -0.47974,-2.16079 -0.62416,-3.72753 -0.0642,-0.69669 -0.095,-3.39608 -0.0394,-3.45221 0.018,-0.0181 2.69867,1.06484 5.95719,2.40653 l 5.92457,2.43944 0.41158,-0.22766 c 0.85594,-0.47346 1.74046,-0.72525 2.71058,-0.77162 l 0.56125,-0.0269 2.71474,-3.94232 2.71474,-3.94232 0.0342,-0.63488 c 0.197,-3.65194 2.78041,-6.76609 6.36371,-7.67106 2.35581,-0.59497 4.87325,-0.11892 6.85835,1.29692 3.40942,2.43171 4.53456,6.918 2.6679,10.63777 -1.30453,2.59958 -3.82134,4.32308 -6.7492,4.62183 -0.2893,0.0295 -0.63231,0.0537 -0.76224,0.0537 -0.23084,0 -0.32451,0.0631 -4.09559,2.75757 l -3.85935,2.75759 -0.06,0.63474 c -0.033,0.34911 -0.10903,0.82658 -0.16889,1.06102 -0.62525,2.44888 -2.59201,4.22008 -5.10478,4.59722 -0.6113,0.0918 -1.11448,0.0908 -1.72688,-0.003 z m 2.10082,-1.44151 c 1.70097,-0.48811 2.87833,-1.64724 3.39259,-3.34008 0.12048,-0.3966 0.13598,-0.53322 0.13991,-1.23326 0.004,-0.61851 -0.0164,-0.86891 -0.0924,-1.16819 -0.48221,-1.89642 -1.9153,-3.24851 -3.82628,-3.60999 -0.47725,-0.0902 -1.61967,-0.0338 -2.09554,0.10362 -0.20951,0.0604 -0.39802,0.12675 -0.41891,0.14724 -0.0209,0.0205 0.66864,0.32995 1.53231,0.68772 0.86367,0.35777 1.70807,0.74049 1.87643,0.8505 0.65278,0.42653 1.18614,1.1603 1.43432,1.97329 0.14672,0.48061 0.15778,1.27861 0.0246,1.773 -0.18431,0.68407 -0.63007,1.38024 -1.17275,1.83155 -0.32289,0.26853 -1.07764,0.63556 -1.47292,0.71625 -0.41806,0.0854 -1.15472,0.0736 -1.53213,-0.0244 -0.17225,-0.0447 -0.94934,-0.34655 -1.72688,-0.67069 -0.77754,-0.32414 -1.45786,-0.60204 -1.51183,-0.61755 -0.0831,-0.0238 -0.0687,0.0256 0.0942,0.32299 0.65328,1.19252 1.86805,2.06449 3.25448,2.3361 0.519,0.10168 1.61654,0.0609 2.10081,-0.0781 z m 14.3535,-13.33074 c 2.16055,-0.58173 3.79298,-2.37831 4.1423,-4.5588 0.0918,-0.57297 0.0426,-1.78611 -0.0934,-2.30311 -0.80659,-3.06675 -3.88955,-4.88376 -6.93361,-4.08644 -2.56185,0.67101 -4.3029,3.05671 -4.18446,5.73381 0.10462,2.3647 1.64464,4.38804 3.90465,5.13014 0.61202,0.20097 1.03181,0.25411 1.87111,0.23685 0.66074,-0.0135 0.86859,-0.038 1.29337,-0.15245 z"
       id="path371"
       inkscape:connector-curvature="0" />
    <circle
       style="display:inline;fill:#ffffff;fill-rule:evenodd;stroke:none;stroke-width:0.00935166"
       id="path373"
       cx="63.296619"
       cy="254.62755"
       r="4.1681633" />
    <rect
       style="display:inline;fill:#ffffff;fill-rule:evenodd;stroke:none;stroke-width:0.09222425"
       id="rect1315-2"
       width="6.8838811"
       height="12.516148"
       x="226.1272"
       y="-135.65393"
       rx="13.174878"
       ry="9.6745953e-18"
       transform="rotate(112.50391)" />
    <circle
       style="display:inline;fill:#ffffff;fill-rule:evenodd;stroke:none;stroke-width:0.00774992"
       id="path373-2-4"
       cx="25.668245"
       cy="259.12134"
       r="3.4542441" />
    <path
       style="opacity:1;fill:#ffffff;fill-opacity:1;stroke:none;stroke-width:0.0534539;stroke-opacity:1"
       d="m 22.529181,242.78397 c -0.07649,-0.24255 -0.775105,-2.3663 -1.552489,-4.71944 -0.777384,-2.35314 -1.413425,-4.29552 -1.413425,-4.3164 0,-0.0209 0.525301,-0.038 1.167337,-0.038 h 1.167337 l 0.791119,2.6326 c 0.435115,1.44794 0.809863,2.65348 0.832774,2.67898 0.02291,0.0255 0.08755,-0.10679 0.143634,-0.294 0.05609,-0.1872 0.412873,-1.39262 0.792855,-2.67871 l 0.690877,-2.33835 1.186568,-2.6e-4 1.186568,-2.6e-4 -0.04793,0.147 c -0.02635,0.0808 -0.736119,2.22167 -1.57723,4.75739 l -1.529295,4.6104 h -0.849816 -0.849817 z"
       id="path1461"
       inkscape:connector-curvature="0" />
    <path
       style="opacity:1;fill:#ffffff;fill-opacity:1;stroke:none;stroke-width:0.0534539;stroke-opacity:1"
       d="m 31.242944,243.27331 c -0.813464,-0.0757 -1.503428,-0.40507 -2.122638,-1.01323 -0.480409,-0.47183 -0.736613,-0.94533 -0.881504,-1.62915 -0.130128,-0.61413 -0.13121,-3.63343 -0.0016,-4.30152 0.292092,-1.50496 1.60809,-2.58326 3.245681,-2.65945 1.17888,-0.0548 2.038792,0.25843 2.808674,1.02323 0.727204,0.7224 0.885647,1.17566 0.995325,2.84741 0.07103,1.08258 0.0067,2.49354 -0.147016,3.22548 -0.253733,1.20808 -1.342207,2.22796 -2.616515,2.45161 -0.484925,0.0851 -0.81135,0.0993 -1.280464,0.0556 z m 1.015624,-2.12748 c 0.280491,-0.12987 0.484273,-0.35304 0.586232,-0.64202 0.135613,-0.38437 0.205799,-1.43629 0.169747,-2.54406 -0.04725,-1.45171 -0.178846,-1.8579 -0.685716,-2.11649 -0.635471,-0.32419 -1.485048,-0.0707 -1.731976,0.51673 -0.143671,0.3418 -0.195341,1.09205 -0.168804,2.45103 0.0282,1.44414 0.06801,1.69152 0.32683,2.03085 0.294894,0.38662 1.012028,0.53159 1.503687,0.30396 z"
       id="path1463"
       inkscape:connector-curvature="0" />
    <path
       style="opacity:1;fill:#ffffff;fill-opacity:1;stroke:none;stroke-width:0.0534539;stroke-opacity:1"
       d="m 38.485947,239.50992 v -3.71505 H 37.33669 36.18743 v -1.04235 -1.04235 h 3.474505 3.474503 v 1.04235 1.04235 h -1.175985 -1.175986 v 3.71505 3.71504 h -1.14926 -1.14926 z"
       id="path1465"
       inkscape:connector-curvature="0" />
    <path
       style="opacity:1;fill:#ffffff;fill-opacity:1;stroke:none;stroke-width:0.0534539;stroke-opacity:1"
       d="m 44.579693,238.46757 v -4.7574 h 3.207234 3.207234 v 1.04235 1.04235 H 48.936187 46.87821 v 0.80181 0.80181 h 1.76398 1.76398 v 1.04235 1.04235 h -1.76398 -1.76398 v 0.85526 0.85526 h 2.057977 2.057974 v 1.01563 1.01562 h -3.207234 -3.207234 z"
       id="path1467"
       inkscape:connector-curvature="0" />
    <path
       style="opacity:1;fill:#ffffff;fill-opacity:1;stroke:none;stroke-width:0.0534539;stroke-opacity:1"
       d="m 58.556059,243.27099 c -0.854758,-0.0739 -1.486858,-0.37829 -2.141078,-1.0311 -0.496696,-0.49563 -0.723302,-0.90002 -0.855818,-1.52726 -0.176739,-0.83656 -0.177424,-3.63669 -0.0011,-4.47844 0.160155,-0.76453 0.603247,-1.42174 1.287981,-1.91035 0.698989,-0.49879 1.433525,-0.70045 2.377567,-0.65274 1.645695,0.0832 2.932154,1.11713 3.240973,2.60486 0.05708,0.27496 0.09248,0.84766 0.112681,1.82312 0.05072,2.44883 -0.119758,3.25284 -0.856803,4.04074 -0.840779,0.8988 -1.816743,1.24767 -3.164406,1.13117 z m 1.160134,-2.21348 c 0.493802,-0.3467 0.583454,-0.75912 0.580427,-2.67013 -0.0029,-1.80591 -0.12164,-2.2674 -0.656349,-2.55012 -0.336251,-0.1778 -0.939784,-0.17253 -1.267402,0.0111 -0.262041,0.14684 -0.452292,0.39076 -0.537091,0.68861 -0.1158,0.40673 -0.17753,1.94073 -0.113649,2.82416 0.07228,0.99964 0.122984,1.21961 0.342458,1.48587 0.249894,0.30316 0.518464,0.40638 1.010158,0.38822 0.357032,-0.0132 0.43983,-0.0361 0.641448,-0.17768 z"
       id="path1469"
       inkscape:connector-curvature="0" />
    <path
       style="opacity:1;fill:#ffffff;fill-opacity:1;stroke:none;stroke-width:0.0534539;stroke-opacity:1"
       d="m 64.304184,238.46639 v -4.75858 l 0.998083,0.0146 0.998082,0.0145 1.527614,2.39731 1.527615,2.39731 0.01392,-2.41067 0.01392,-2.41067 h 1.148715 1.148715 v 4.75857 4.75858 l -0.99913,-0.0145 -0.999128,-0.0146 -1.526569,-2.39522 -1.526567,-2.39521 -0.01392,2.40858 -0.01392,2.40857 h -1.148712 -1.148715 z"
       id="path1471"
       inkscape:connector-curvature="0" />
  </g>
</svg>
